# IFF floorball rink 40x20 m - generated from SPCR 011 / Rules of the Game
# units: millimetres. Goal-line placement is a best-effort reconstruction - see script header.
mtllib rink.mtl
v 10000.000 0.000 2000.000
v 10000.000 0.000 38000.000
v 10000.000 500.000 38000.000
v 10000.000 500.000 2000.000
v 10000.000 0.000 2000.000
v 10000.000 0.000 38000.000
v 10000.000 500.000 38000.000
v 10000.000 500.000 2000.000
v 10000.000 0.000 38000.000
v 9990.369 0.000 38196.034
v 9990.369 500.000 38196.034
v 10000.000 500.000 38000.000
v 10000.000 0.000 38000.000
v 9990.369 0.000 38196.034
v 9990.369 500.000 38196.034
v 10000.000 500.000 38000.000
v 9990.369 0.000 38196.034
v 9961.571 0.000 38390.181
v 9961.571 500.000 38390.181
v 9990.369 500.000 38196.034
v 9990.369 0.000 38196.034
v 9961.571 0.000 38390.181
v 9961.571 500.000 38390.181
v 9990.369 500.000 38196.034
v 9961.571 0.000 38390.181
v 9913.881 0.000 38580.569
v 9913.881 500.000 38580.569
v 9961.571 500.000 38390.181
v 9961.571 0.000 38390.181
v 9913.881 0.000 38580.569
v 9913.881 500.000 38580.569
v 9961.571 500.000 38390.181
v 9913.881 0.000 38580.569
v 9847.759 0.000 38765.367
v 9847.759 500.000 38765.367
v 9913.881 500.000 38580.569
v 9913.881 0.000 38580.569
v 9847.759 0.000 38765.367
v 9847.759 500.000 38765.367
v 9913.881 500.000 38580.569
v 9847.759 0.000 38765.367
v 9763.843 0.000 38942.793
v 9763.843 500.000 38942.793
v 9847.759 500.000 38765.367
v 9847.759 0.000 38765.367
v 9763.843 0.000 38942.793
v 9763.843 500.000 38942.793
v 9847.759 500.000 38765.367
v 9763.843 0.000 38942.793
v 9662.939 0.000 39111.140
v 9662.939 500.000 39111.140
v 9763.843 500.000 38942.793
v 9763.843 0.000 38942.793
v 9662.939 0.000 39111.140
v 9662.939 500.000 39111.140
v 9763.843 500.000 38942.793
v 9662.939 0.000 39111.140
v 9546.021 0.000 39268.787
v 9546.021 500.000 39268.787
v 9662.939 500.000 39111.140
v 9662.939 0.000 39111.140
v 9546.021 0.000 39268.787
v 9546.021 500.000 39268.787
v 9662.939 500.000 39111.140
v 9546.021 0.000 39268.787
v 9414.214 0.000 39414.214
v 9414.214 500.000 39414.214
v 9546.021 500.000 39268.787
v 9546.021 0.000 39268.787
v 9414.214 0.000 39414.214
v 9414.214 500.000 39414.214
v 9546.021 500.000 39268.787
v 9414.214 0.000 39414.214
v 9268.787 0.000 39546.021
v 9268.787 500.000 39546.021
v 9414.214 500.000 39414.214
v 9414.214 0.000 39414.214
v 9268.787 0.000 39546.021
v 9268.787 500.000 39546.021
v 9414.214 500.000 39414.214
v 9268.787 0.000 39546.021
v 9111.140 0.000 39662.939
v 9111.140 500.000 39662.939
v 9268.787 500.000 39546.021
v 9268.787 0.000 39546.021
v 9111.140 0.000 39662.939
v 9111.140 500.000 39662.939
v 9268.787 500.000 39546.021
v 9111.140 0.000 39662.939
v 8942.793 0.000 39763.843
v 8942.793 500.000 39763.843
v 9111.140 500.000 39662.939
v 9111.140 0.000 39662.939
v 8942.793 0.000 39763.843
v 8942.793 500.000 39763.843
v 9111.140 500.000 39662.939
v 8942.793 0.000 39763.843
v 8765.367 0.000 39847.759
v 8765.367 500.000 39847.759
v 8942.793 500.000 39763.843
v 8942.793 0.000 39763.843
v 8765.367 0.000 39847.759
v 8765.367 500.000 39847.759
v 8942.793 500.000 39763.843
v 8765.367 0.000 39847.759
v 8580.569 0.000 39913.881
v 8580.569 500.000 39913.881
v 8765.367 500.000 39847.759
v 8765.367 0.000 39847.759
v 8580.569 0.000 39913.881
v 8580.569 500.000 39913.881
v 8765.367 500.000 39847.759
v 8580.569 0.000 39913.881
v 8390.181 0.000 39961.571
v 8390.181 500.000 39961.571
v 8580.569 500.000 39913.881
v 8580.569 0.000 39913.881
v 8390.181 0.000 39961.571
v 8390.181 500.000 39961.571
v 8580.569 500.000 39913.881
v 8390.181 0.000 39961.571
v 8196.034 0.000 39990.369
v 8196.034 500.000 39990.369
v 8390.181 500.000 39961.571
v 8390.181 0.000 39961.571
v 8196.034 0.000 39990.369
v 8196.034 500.000 39990.369
v 8390.181 500.000 39961.571
v 8196.034 0.000 39990.369
v 8000.000 0.000 40000.000
v 8000.000 500.000 40000.000
v 8196.034 500.000 39990.369
v 8196.034 0.000 39990.369
v 8000.000 0.000 40000.000
v 8000.000 500.000 40000.000
v 8196.034 500.000 39990.369
v 8000.000 0.000 40000.000
v -8196.034 0.000 39990.369
v -8196.034 500.000 39990.369
v 8000.000 500.000 40000.000
v 8000.000 0.000 40000.000
v -8196.034 0.000 39990.369
v -8196.034 500.000 39990.369
v 8000.000 500.000 40000.000
v -8196.034 0.000 39990.369
v -8390.181 0.000 39961.571
v -8390.181 500.000 39961.571
v -8196.034 500.000 39990.369
v -8196.034 0.000 39990.369
v -8390.181 0.000 39961.571
v -8390.181 500.000 39961.571
v -8196.034 500.000 39990.369
v -8390.181 0.000 39961.571
v -8580.569 0.000 39913.881
v -8580.569 500.000 39913.881
v -8390.181 500.000 39961.571
v -8390.181 0.000 39961.571
v -8580.569 0.000 39913.881
v -8580.569 500.000 39913.881
v -8390.181 500.000 39961.571
v -8580.569 0.000 39913.881
v -8765.367 0.000 39847.759
v -8765.367 500.000 39847.759
v -8580.569 500.000 39913.881
v -8580.569 0.000 39913.881
v -8765.367 0.000 39847.759
v -8765.367 500.000 39847.759
v -8580.569 500.000 39913.881
v -8765.367 0.000 39847.759
v -8942.793 0.000 39763.843
v -8942.793 500.000 39763.843
v -8765.367 500.000 39847.759
v -8765.367 0.000 39847.759
v -8942.793 0.000 39763.843
v -8942.793 500.000 39763.843
v -8765.367 500.000 39847.759
v -8942.793 0.000 39763.843
v -9111.140 0.000 39662.939
v -9111.140 500.000 39662.939
v -8942.793 500.000 39763.843
v -8942.793 0.000 39763.843
v -9111.140 0.000 39662.939
v -9111.140 500.000 39662.939
v -8942.793 500.000 39763.843
v -9111.140 0.000 39662.939
v -9268.787 0.000 39546.021
v -9268.787 500.000 39546.021
v -9111.140 500.000 39662.939
v -9111.140 0.000 39662.939
v -9268.787 0.000 39546.021
v -9268.787 500.000 39546.021
v -9111.140 500.000 39662.939
v -9268.787 0.000 39546.021
v -9414.214 0.000 39414.214
v -9414.214 500.000 39414.214
v -9268.787 500.000 39546.021
v -9268.787 0.000 39546.021
v -9414.214 0.000 39414.214
v -9414.214 500.000 39414.214
v -9268.787 500.000 39546.021
v -9414.214 0.000 39414.214
v -9546.021 0.000 39268.787
v -9546.021 500.000 39268.787
v -9414.214 500.000 39414.214
v -9414.214 0.000 39414.214
v -9546.021 0.000 39268.787
v -9546.021 500.000 39268.787
v -9414.214 500.000 39414.214
v -9546.021 0.000 39268.787
v -9662.939 0.000 39111.140
v -9662.939 500.000 39111.140
v -9546.021 500.000 39268.787
v -9546.021 0.000 39268.787
v -9662.939 0.000 39111.140
v -9662.939 500.000 39111.140
v -9546.021 500.000 39268.787
v -9662.939 0.000 39111.140
v -9763.843 0.000 38942.793
v -9763.843 500.000 38942.793
v -9662.939 500.000 39111.140
v -9662.939 0.000 39111.140
v -9763.843 0.000 38942.793
v -9763.843 500.000 38942.793
v -9662.939 500.000 39111.140
v -9763.843 0.000 38942.793
v -9847.759 0.000 38765.367
v -9847.759 500.000 38765.367
v -9763.843 500.000 38942.793
v -9763.843 0.000 38942.793
v -9847.759 0.000 38765.367
v -9847.759 500.000 38765.367
v -9763.843 500.000 38942.793
v -9847.759 0.000 38765.367
v -9913.881 0.000 38580.569
v -9913.881 500.000 38580.569
v -9847.759 500.000 38765.367
v -9847.759 0.000 38765.367
v -9913.881 0.000 38580.569
v -9913.881 500.000 38580.569
v -9847.759 500.000 38765.367
v -9913.881 0.000 38580.569
v -9961.571 0.000 38390.181
v -9961.571 500.000 38390.181
v -9913.881 500.000 38580.569
v -9913.881 0.000 38580.569
v -9961.571 0.000 38390.181
v -9961.571 500.000 38390.181
v -9913.881 500.000 38580.569
v -9961.571 0.000 38390.181
v -9990.369 0.000 38196.034
v -9990.369 500.000 38196.034
v -9961.571 500.000 38390.181
v -9961.571 0.000 38390.181
v -9990.369 0.000 38196.034
v -9990.369 500.000 38196.034
v -9961.571 500.000 38390.181
v -9990.369 0.000 38196.034
v -10000.000 0.000 38000.000
v -10000.000 500.000 38000.000
v -9990.369 500.000 38196.034
v -9990.369 0.000 38196.034
v -10000.000 0.000 38000.000
v -10000.000 500.000 38000.000
v -9990.369 500.000 38196.034
v -10000.000 0.000 38000.000
v -9990.369 0.000 1803.966
v -9990.369 500.000 1803.966
v -10000.000 500.000 38000.000
v -10000.000 0.000 38000.000
v -9990.369 0.000 1803.966
v -9990.369 500.000 1803.966
v -10000.000 500.000 38000.000
v -9990.369 0.000 1803.966
v -9961.571 0.000 1609.819
v -9961.571 500.000 1609.819
v -9990.369 500.000 1803.966
v -9990.369 0.000 1803.966
v -9961.571 0.000 1609.819
v -9961.571 500.000 1609.819
v -9990.369 500.000 1803.966
v -9961.571 0.000 1609.819
v -9913.881 0.000 1419.431
v -9913.881 500.000 1419.431
v -9961.571 500.000 1609.819
v -9961.571 0.000 1609.819
v -9913.881 0.000 1419.431
v -9913.881 500.000 1419.431
v -9961.571 500.000 1609.819
v -9913.881 0.000 1419.431
v -9847.759 0.000 1234.633
v -9847.759 500.000 1234.633
v -9913.881 500.000 1419.431
v -9913.881 0.000 1419.431
v -9847.759 0.000 1234.633
v -9847.759 500.000 1234.633
v -9913.881 500.000 1419.431
v -9847.759 0.000 1234.633
v -9763.843 0.000 1057.207
v -9763.843 500.000 1057.207
v -9847.759 500.000 1234.633
v -9847.759 0.000 1234.633
v -9763.843 0.000 1057.207
v -9763.843 500.000 1057.207
v -9847.759 500.000 1234.633
v -9763.843 0.000 1057.207
v -9662.939 0.000 888.860
v -9662.939 500.000 888.860
v -9763.843 500.000 1057.207
v -9763.843 0.000 1057.207
v -9662.939 0.000 888.860
v -9662.939 500.000 888.860
v -9763.843 500.000 1057.207
v -9662.939 0.000 888.860
v -9546.021 0.000 731.213
v -9546.021 500.000 731.213
v -9662.939 500.000 888.860
v -9662.939 0.000 888.860
v -9546.021 0.000 731.213
v -9546.021 500.000 731.213
v -9662.939 500.000 888.860
v -9546.021 0.000 731.213
v -9414.214 0.000 585.786
v -9414.214 500.000 585.786
v -9546.021 500.000 731.213
v -9546.021 0.000 731.213
v -9414.214 0.000 585.786
v -9414.214 500.000 585.786
v -9546.021 500.000 731.213
v -9414.214 0.000 585.786
v -9268.787 0.000 453.979
v -9268.787 500.000 453.979
v -9414.214 500.000 585.786
v -9414.214 0.000 585.786
v -9268.787 0.000 453.979
v -9268.787 500.000 453.979
v -9414.214 500.000 585.786
v -9268.787 0.000 453.979
v -9111.140 0.000 337.061
v -9111.140 500.000 337.061
v -9268.787 500.000 453.979
v -9268.787 0.000 453.979
v -9111.140 0.000 337.061
v -9111.140 500.000 337.061
v -9268.787 500.000 453.979
v -9111.140 0.000 337.061
v -8942.793 0.000 236.157
v -8942.793 500.000 236.157
v -9111.140 500.000 337.061
v -9111.140 0.000 337.061
v -8942.793 0.000 236.157
v -8942.793 500.000 236.157
v -9111.140 500.000 337.061
v -8942.793 0.000 236.157
v -8765.367 0.000 152.241
v -8765.367 500.000 152.241
v -8942.793 500.000 236.157
v -8942.793 0.000 236.157
v -8765.367 0.000 152.241
v -8765.367 500.000 152.241
v -8942.793 500.000 236.157
v -8765.367 0.000 152.241
v -8580.569 0.000 86.119
v -8580.569 500.000 86.119
v -8765.367 500.000 152.241
v -8765.367 0.000 152.241
v -8580.569 0.000 86.119
v -8580.569 500.000 86.119
v -8765.367 500.000 152.241
v -8580.569 0.000 86.119
v -8390.181 0.000 38.429
v -8390.181 500.000 38.429
v -8580.569 500.000 86.119
v -8580.569 0.000 86.119
v -8390.181 0.000 38.429
v -8390.181 500.000 38.429
v -8580.569 500.000 86.119
v -8390.181 0.000 38.429
v -8196.034 0.000 9.631
v -8196.034 500.000 9.631
v -8390.181 500.000 38.429
v -8390.181 0.000 38.429
v -8196.034 0.000 9.631
v -8196.034 500.000 9.631
v -8390.181 500.000 38.429
v -8196.034 0.000 9.631
v -8000.000 0.000 0.000
v -8000.000 500.000 0.000
v -8196.034 500.000 9.631
v -8196.034 0.000 9.631
v -8000.000 0.000 0.000
v -8000.000 500.000 0.000
v -8196.034 500.000 9.631
v -8000.000 0.000 0.000
v 8196.034 0.000 9.631
v 8196.034 500.000 9.631
v -8000.000 500.000 0.000
v -8000.000 0.000 0.000
v 8196.034 0.000 9.631
v 8196.034 500.000 9.631
v -8000.000 500.000 0.000
v 8196.034 0.000 9.631
v 8390.181 0.000 38.429
v 8390.181 500.000 38.429
v 8196.034 500.000 9.631
v 8196.034 0.000 9.631
v 8390.181 0.000 38.429
v 8390.181 500.000 38.429
v 8196.034 500.000 9.631
v 8390.181 0.000 38.429
v 8580.569 0.000 86.119
v 8580.569 500.000 86.119
v 8390.181 500.000 38.429
v 8390.181 0.000 38.429
v 8580.569 0.000 86.119
v 8580.569 500.000 86.119
v 8390.181 500.000 38.429
v 8580.569 0.000 86.119
v 8765.367 0.000 152.241
v 8765.367 500.000 152.241
v 8580.569 500.000 86.119
v 8580.569 0.000 86.119
v 8765.367 0.000 152.241
v 8765.367 500.000 152.241
v 8580.569 500.000 86.119
v 8765.367 0.000 152.241
v 8942.793 0.000 236.157
v 8942.793 500.000 236.157
v 8765.367 500.000 152.241
v 8765.367 0.000 152.241
v 8942.793 0.000 236.157
v 8942.793 500.000 236.157
v 8765.367 500.000 152.241
v 8942.793 0.000 236.157
v 9111.140 0.000 337.061
v 9111.140 500.000 337.061
v 8942.793 500.000 236.157
v 8942.793 0.000 236.157
v 9111.140 0.000 337.061
v 9111.140 500.000 337.061
v 8942.793 500.000 236.157
v 9111.140 0.000 337.061
v 9268.787 0.000 453.979
v 9268.787 500.000 453.979
v 9111.140 500.000 337.061
v 9111.140 0.000 337.061
v 9268.787 0.000 453.979
v 9268.787 500.000 453.979
v 9111.140 500.000 337.061
v 9268.787 0.000 453.979
v 9414.214 0.000 585.786
v 9414.214 500.000 585.786
v 9268.787 500.000 453.979
v 9268.787 0.000 453.979
v 9414.214 0.000 585.786
v 9414.214 500.000 585.786
v 9268.787 500.000 453.979
v 9414.214 0.000 585.786
v 9546.021 0.000 731.213
v 9546.021 500.000 731.213
v 9414.214 500.000 585.786
v 9414.214 0.000 585.786
v 9546.021 0.000 731.213
v 9546.021 500.000 731.213
v 9414.214 500.000 585.786
v 9546.021 0.000 731.213
v 9662.939 0.000 888.860
v 9662.939 500.000 888.860
v 9546.021 500.000 731.213
v 9546.021 0.000 731.213
v 9662.939 0.000 888.860
v 9662.939 500.000 888.860
v 9546.021 500.000 731.213
v 9662.939 0.000 888.860
v 9763.843 0.000 1057.207
v 9763.843 500.000 1057.207
v 9662.939 500.000 888.860
v 9662.939 0.000 888.860
v 9763.843 0.000 1057.207
v 9763.843 500.000 1057.207
v 9662.939 500.000 888.860
v 9763.843 0.000 1057.207
v 9847.759 0.000 1234.633
v 9847.759 500.000 1234.633
v 9763.843 500.000 1057.207
v 9763.843 0.000 1057.207
v 9847.759 0.000 1234.633
v 9847.759 500.000 1234.633
v 9763.843 500.000 1057.207
v 9847.759 0.000 1234.633
v 9913.881 0.000 1419.431
v 9913.881 500.000 1419.431
v 9847.759 500.000 1234.633
v 9847.759 0.000 1234.633
v 9913.881 0.000 1419.431
v 9913.881 500.000 1419.431
v 9847.759 500.000 1234.633
v 9913.881 0.000 1419.431
v 9961.571 0.000 1609.819
v 9961.571 500.000 1609.819
v 9913.881 500.000 1419.431
v 9913.881 0.000 1419.431
v 9961.571 0.000 1609.819
v 9961.571 500.000 1609.819
v 9913.881 500.000 1419.431
v 9961.571 0.000 1609.819
v 9990.369 0.000 1803.966
v 9990.369 500.000 1803.966
v 9961.571 500.000 1609.819
v 9961.571 0.000 1609.819
v 9990.369 0.000 1803.966
v 9990.369 500.000 1803.966
v 9961.571 500.000 1609.819
v 9990.369 0.000 1803.966
v 10000.000 0.000 2000.000
v 10000.000 500.000 2000.000
v 9990.369 500.000 1803.966
v 9990.369 0.000 1803.966
v 10000.000 0.000 2000.000
v 10000.000 500.000 2000.000
v 9990.369 500.000 1803.966
v -10000.000 2.000 20025.000
v 10000.000 2.000 20025.000
v 10000.000 2.000 19975.000
v -10000.000 2.000 19975.000
v -10000.000 2.000 20025.000
v 10000.000 2.000 20025.000
v 10000.000 2.000 19975.000
v -10000.000 2.000 19975.000
v 0.000 2.000 20000.000
v 150.000 2.000 20000.000
v 146.239 2.000 20033.378
v 135.145 2.000 20065.083
v 117.275 2.000 20093.523
v 93.523 2.000 20117.275
v 65.083 2.000 20135.145
v 33.378 2.000 20146.239
v 0.000 2.000 20150.000
v -33.378 2.000 20146.239
v -65.083 2.000 20135.145
v -93.523 2.000 20117.275
v -117.275 2.000 20093.523
v -135.145 2.000 20065.083
v -146.239 2.000 20033.378
v -150.000 2.000 20000.000
v -146.239 2.000 19966.622
v -135.145 2.000 19934.917
v -117.275 2.000 19906.477
v -93.523 2.000 19882.725
v -65.083 2.000 19864.855
v -33.378 2.000 19853.761
v -0.000 2.000 19850.000
v 33.378 2.000 19853.761
v 65.083 2.000 19864.855
v 93.523 2.000 19882.725
v 117.275 2.000 19906.477
v 135.145 2.000 19934.917
v 146.239 2.000 19966.622
v -2525.000 2.000 2825.000
v 2525.000 2.000 2825.000
v 2525.000 2.000 2875.000
v -2525.000 2.000 2875.000
v -2525.000 2.000 2825.000
v 2525.000 2.000 2825.000
v 2525.000 2.000 2875.000
v -2525.000 2.000 2875.000
v -2525.000 2.000 6825.000
v 2525.000 2.000 6825.000
v 2525.000 2.000 6875.000
v -2525.000 2.000 6875.000
v -2525.000 2.000 6825.000
v 2525.000 2.000 6825.000
v 2525.000 2.000 6875.000
v -2525.000 2.000 6875.000
v -2525.000 2.000 2825.000
v -2475.000 2.000 2825.000
v -2475.000 2.000 6875.000
v -2525.000 2.000 6875.000
v -2525.000 2.000 2825.000
v -2475.000 2.000 2825.000
v -2475.000 2.000 6875.000
v -2525.000 2.000 6875.000
v 2475.000 2.000 2825.000
v 2525.000 2.000 2825.000
v 2525.000 2.000 6875.000
v 2475.000 2.000 6875.000
v 2475.000 2.000 2825.000
v 2525.000 2.000 2825.000
v 2525.000 2.000 6875.000
v 2475.000 2.000 6875.000
v -1275.000 2.000 3475.000
v 1275.000 2.000 3475.000
v 1275.000 2.000 3525.000
v -1275.000 2.000 3525.000
v -1275.000 2.000 3475.000
v 1275.000 2.000 3475.000
v 1275.000 2.000 3525.000
v -1275.000 2.000 3525.000
v -1275.000 2.000 4475.000
v 1275.000 2.000 4475.000
v 1275.000 2.000 4525.000
v -1275.000 2.000 4525.000
v -1275.000 2.000 4475.000
v 1275.000 2.000 4475.000
v 1275.000 2.000 4525.000
v -1275.000 2.000 4525.000
v -1275.000 2.000 3475.000
v -1225.000 2.000 3475.000
v -1225.000 2.000 4525.000
v -1275.000 2.000 4525.000
v -1275.000 2.000 3475.000
v -1225.000 2.000 3475.000
v -1225.000 2.000 4525.000
v -1275.000 2.000 4525.000
v 1225.000 2.000 3475.000
v 1275.000 2.000 3475.000
v 1275.000 2.000 4525.000
v 1225.000 2.000 4525.000
v 1225.000 2.000 3475.000
v 1275.000 2.000 3475.000
v 1275.000 2.000 4525.000
v 1225.000 2.000 4525.000
v 8500.000 2.000 3500.000
v 8650.000 2.000 3500.000
v 8646.239 2.000 3533.378
v 8635.145 2.000 3565.083
v 8617.275 2.000 3593.523
v 8593.523 2.000 3617.275
v 8565.083 2.000 3635.145
v 8533.378 2.000 3646.239
v 8500.000 2.000 3650.000
v 8466.622 2.000 3646.239
v 8434.917 2.000 3635.145
v 8406.477 2.000 3617.275
v 8382.725 2.000 3593.523
v 8364.855 2.000 3565.083
v 8353.761 2.000 3533.378
v 8350.000 2.000 3500.000
v 8353.761 2.000 3466.622
v 8364.855 2.000 3434.917
v 8382.725 2.000 3406.477
v 8406.477 2.000 3382.725
v 8434.917 2.000 3364.855
v 8466.622 2.000 3353.761
v 8500.000 2.000 3350.000
v 8533.378 2.000 3353.761
v 8565.083 2.000 3364.855
v 8593.523 2.000 3382.725
v 8617.275 2.000 3406.477
v 8635.145 2.000 3434.917
v 8646.239 2.000 3466.622
v -8500.000 2.000 3500.000
v -8350.000 2.000 3500.000
v -8353.761 2.000 3533.378
v -8364.855 2.000 3565.083
v -8382.725 2.000 3593.523
v -8406.477 2.000 3617.275
v -8434.917 2.000 3635.145
v -8466.622 2.000 3646.239
v -8500.000 2.000 3650.000
v -8533.378 2.000 3646.239
v -8565.083 2.000 3635.145
v -8593.523 2.000 3617.275
v -8617.275 2.000 3593.523
v -8635.145 2.000 3565.083
v -8646.239 2.000 3533.378
v -8650.000 2.000 3500.000
v -8646.239 2.000 3466.622
v -8635.145 2.000 3434.917
v -8617.275 2.000 3406.477
v -8593.523 2.000 3382.725
v -8565.083 2.000 3364.855
v -8533.378 2.000 3353.761
v -8500.000 2.000 3350.000
v -8466.622 2.000 3353.761
v -8434.917 2.000 3364.855
v -8406.477 2.000 3382.725
v -8382.725 2.000 3406.477
v -8364.855 2.000 3434.917
v -8353.761 2.000 3466.622
v -2525.000 2.000 33125.000
v 2525.000 2.000 33125.000
v 2525.000 2.000 33175.000
v -2525.000 2.000 33175.000
v -2525.000 2.000 33125.000
v 2525.000 2.000 33125.000
v 2525.000 2.000 33175.000
v -2525.000 2.000 33175.000
v -2525.000 2.000 37125.000
v 2525.000 2.000 37125.000
v 2525.000 2.000 37175.000
v -2525.000 2.000 37175.000
v -2525.000 2.000 37125.000
v 2525.000 2.000 37125.000
v 2525.000 2.000 37175.000
v -2525.000 2.000 37175.000
v -2525.000 2.000 33125.000
v -2475.000 2.000 33125.000
v -2475.000 2.000 37175.000
v -2525.000 2.000 37175.000
v -2525.000 2.000 33125.000
v -2475.000 2.000 33125.000
v -2475.000 2.000 37175.000
v -2525.000 2.000 37175.000
v 2475.000 2.000 33125.000
v 2525.000 2.000 33125.000
v 2525.000 2.000 37175.000
v 2475.000 2.000 37175.000
v 2475.000 2.000 33125.000
v 2525.000 2.000 33125.000
v 2525.000 2.000 37175.000
v 2475.000 2.000 37175.000
v -1275.000 2.000 35475.000
v 1275.000 2.000 35475.000
v 1275.000 2.000 35525.000
v -1275.000 2.000 35525.000
v -1275.000 2.000 35475.000
v 1275.000 2.000 35475.000
v 1275.000 2.000 35525.000
v -1275.000 2.000 35525.000
v -1275.000 2.000 36475.000
v 1275.000 2.000 36475.000
v 1275.000 2.000 36525.000
v -1275.000 2.000 36525.000
v -1275.000 2.000 36475.000
v 1275.000 2.000 36475.000
v 1275.000 2.000 36525.000
v -1275.000 2.000 36525.000
v -1275.000 2.000 35475.000
v -1225.000 2.000 35475.000
v -1225.000 2.000 36525.000
v -1275.000 2.000 36525.000
v -1275.000 2.000 35475.000
v -1225.000 2.000 35475.000
v -1225.000 2.000 36525.000
v -1275.000 2.000 36525.000
v 1225.000 2.000 35475.000
v 1275.000 2.000 35475.000
v 1275.000 2.000 36525.000
v 1225.000 2.000 36525.000
v 1225.000 2.000 35475.000
v 1275.000 2.000 35475.000
v 1275.000 2.000 36525.000
v 1225.000 2.000 36525.000
v 8500.000 2.000 36500.000
v 8650.000 2.000 36500.000
v 8646.239 2.000 36533.378
v 8635.145 2.000 36565.083
v 8617.275 2.000 36593.523
v 8593.523 2.000 36617.275
v 8565.083 2.000 36635.145
v 8533.378 2.000 36646.239
v 8500.000 2.000 36650.000
v 8466.622 2.000 36646.239
v 8434.917 2.000 36635.145
v 8406.477 2.000 36617.275
v 8382.725 2.000 36593.523
v 8364.855 2.000 36565.083
v 8353.761 2.000 36533.378
v 8350.000 2.000 36500.000
v 8353.761 2.000 36466.622
v 8364.855 2.000 36434.917
v 8382.725 2.000 36406.477
v 8406.477 2.000 36382.725
v 8434.917 2.000 36364.855
v 8466.622 2.000 36353.761
v 8500.000 2.000 36350.000
v 8533.378 2.000 36353.761
v 8565.083 2.000 36364.855
v 8593.523 2.000 36382.725
v 8617.275 2.000 36406.477
v 8635.145 2.000 36434.917
v 8646.239 2.000 36466.622
v -8500.000 2.000 36500.000
v -8350.000 2.000 36500.000
v -8353.761 2.000 36533.378
v -8364.855 2.000 36565.083
v -8382.725 2.000 36593.523
v -8406.477 2.000 36617.275
v -8434.917 2.000 36635.145
v -8466.622 2.000 36646.239
v -8500.000 2.000 36650.000
v -8533.378 2.000 36646.239
v -8565.083 2.000 36635.145
v -8593.523 2.000 36617.275
v -8617.275 2.000 36593.523
v -8635.145 2.000 36565.083
v -8646.239 2.000 36533.378
v -8650.000 2.000 36500.000
v -8646.239 2.000 36466.622
v -8635.145 2.000 36434.917
v -8617.275 2.000 36406.477
v -8593.523 2.000 36382.725
v -8565.083 2.000 36364.855
v -8533.378 2.000 36353.761
v -8500.000 2.000 36350.000
v -8466.622 2.000 36353.761
v -8434.917 2.000 36364.855
v -8406.477 2.000 36382.725
v -8382.725 2.000 36406.477
v -8364.855 2.000 36434.917
v -8353.761 2.000 36466.622
v 8500.000 2.000 20000.000
v 8650.000 2.000 20000.000
v 8646.239 2.000 20033.378
v 8635.145 2.000 20065.083
v 8617.275 2.000 20093.523
v 8593.523 2.000 20117.275
v 8565.083 2.000 20135.145
v 8533.378 2.000 20146.239
v 8500.000 2.000 20150.000
v 8466.622 2.000 20146.239
v 8434.917 2.000 20135.145
v 8406.477 2.000 20117.275
v 8382.725 2.000 20093.523
v 8364.855 2.000 20065.083
v 8353.761 2.000 20033.378
v 8350.000 2.000 20000.000
v 8353.761 2.000 19966.622
v 8364.855 2.000 19934.917
v 8382.725 2.000 19906.477
v 8406.477 2.000 19882.725
v 8434.917 2.000 19864.855
v 8466.622 2.000 19853.761
v 8500.000 2.000 19850.000
v 8533.378 2.000 19853.761
v 8565.083 2.000 19864.855
v 8593.523 2.000 19882.725
v 8617.275 2.000 19906.477
v 8635.145 2.000 19934.917
v 8646.239 2.000 19966.622
v -8500.000 2.000 20000.000
v -8350.000 2.000 20000.000
v -8353.761 2.000 20033.378
v -8364.855 2.000 20065.083
v -8382.725 2.000 20093.523
v -8406.477 2.000 20117.275
v -8434.917 2.000 20135.145
v -8466.622 2.000 20146.239
v -8500.000 2.000 20150.000
v -8533.378 2.000 20146.239
v -8565.083 2.000 20135.145
v -8593.523 2.000 20117.275
v -8617.275 2.000 20093.523
v -8635.145 2.000 20065.083
v -8646.239 2.000 20033.378
v -8650.000 2.000 20000.000
v -8646.239 2.000 19966.622
v -8635.145 2.000 19934.917
v -8617.275 2.000 19906.477
v -8593.523 2.000 19882.725
v -8565.083 2.000 19864.855
v -8533.378 2.000 19853.761
v -8500.000 2.000 19850.000
v -8466.622 2.000 19853.761
v -8434.917 2.000 19864.855
v -8406.477 2.000 19882.725
v -8382.725 2.000 19906.477
v -8364.855 2.000 19934.917
v -8353.761 2.000 19966.622
usemtl Board
f 1 2 3
f 1 3 4
f 5 7 6
f 5 8 7
f 9 10 11
f 9 11 12
f 13 15 14
f 13 16 15
f 17 18 19
f 17 19 20
f 21 23 22
f 21 24 23
f 25 26 27
f 25 27 28
f 29 31 30
f 29 32 31
f 33 34 35
f 33 35 36
f 37 39 38
f 37 40 39
f 41 42 43
f 41 43 44
f 45 47 46
f 45 48 47
f 49 50 51
f 49 51 52
f 53 55 54
f 53 56 55
f 57 58 59
f 57 59 60
f 61 63 62
f 61 64 63
f 65 66 67
f 65 67 68
f 69 71 70
f 69 72 71
f 73 74 75
f 73 75 76
f 77 79 78
f 77 80 79
f 81 82 83
f 81 83 84
f 85 87 86
f 85 88 87
f 89 90 91
f 89 91 92
f 93 95 94
f 93 96 95
f 97 98 99
f 97 99 100
f 101 103 102
f 101 104 103
f 105 106 107
f 105 107 108
f 109 111 110
f 109 112 111
f 113 114 115
f 113 115 116
f 117 119 118
f 117 120 119
f 121 122 123
f 121 123 124
f 125 127 126
f 125 128 127
f 129 130 131
f 129 131 132
f 133 135 134
f 133 136 135
f 137 138 139
f 137 139 140
f 141 143 142
f 141 144 143
f 145 146 147
f 145 147 148
f 149 151 150
f 149 152 151
f 153 154 155
f 153 155 156
f 157 159 158
f 157 160 159
f 161 162 163
f 161 163 164
f 165 167 166
f 165 168 167
f 169 170 171
f 169 171 172
f 173 175 174
f 173 176 175
f 177 178 179
f 177 179 180
f 181 183 182
f 181 184 183
f 185 186 187
f 185 187 188
f 189 191 190
f 189 192 191
f 193 194 195
f 193 195 196
f 197 199 198
f 197 200 199
f 201 202 203
f 201 203 204
f 205 207 206
f 205 208 207
f 209 210 211
f 209 211 212
f 213 215 214
f 213 216 215
f 217 218 219
f 217 219 220
f 221 223 222
f 221 224 223
f 225 226 227
f 225 227 228
f 229 231 230
f 229 232 231
f 233 234 235
f 233 235 236
f 237 239 238
f 237 240 239
f 241 242 243
f 241 243 244
f 245 247 246
f 245 248 247
f 249 250 251
f 249 251 252
f 253 255 254
f 253 256 255
f 257 258 259
f 257 259 260
f 261 263 262
f 261 264 263
f 265 266 267
f 265 267 268
f 269 271 270
f 269 272 271
f 273 274 275
f 273 275 276
f 277 279 278
f 277 280 279
f 281 282 283
f 281 283 284
f 285 287 286
f 285 288 287
f 289 290 291
f 289 291 292
f 293 295 294
f 293 296 295
f 297 298 299
f 297 299 300
f 301 303 302
f 301 304 303
f 305 306 307
f 305 307 308
f 309 311 310
f 309 312 311
f 313 314 315
f 313 315 316
f 317 319 318
f 317 320 319
f 321 322 323
f 321 323 324
f 325 327 326
f 325 328 327
f 329 330 331
f 329 331 332
f 333 335 334
f 333 336 335
f 337 338 339
f 337 339 340
f 341 343 342
f 341 344 343
f 345 346 347
f 345 347 348
f 349 351 350
f 349 352 351
f 353 354 355
f 353 355 356
f 357 359 358
f 357 360 359
f 361 362 363
f 361 363 364
f 365 367 366
f 365 368 367
f 369 370 371
f 369 371 372
f 373 375 374
f 373 376 375
f 377 378 379
f 377 379 380
f 381 383 382
f 381 384 383
f 385 386 387
f 385 387 388
f 389 391 390
f 389 392 391
f 393 394 395
f 393 395 396
f 397 399 398
f 397 400 399
f 401 402 403
f 401 403 404
f 405 407 406
f 405 408 407
f 409 410 411
f 409 411 412
f 413 415 414
f 413 416 415
f 417 418 419
f 417 419 420
f 421 423 422
f 421 424 423
f 425 426 427
f 425 427 428
f 429 431 430
f 429 432 431
f 433 434 435
f 433 435 436
f 437 439 438
f 437 440 439
f 441 442 443
f 441 443 444
f 445 447 446
f 445 448 447
f 449 450 451
f 449 451 452
f 453 455 454
f 453 456 455
f 457 458 459
f 457 459 460
f 461 463 462
f 461 464 463
f 465 466 467
f 465 467 468
f 469 471 470
f 469 472 471
f 473 474 475
f 473 475 476
f 477 479 478
f 477 480 479
f 481 482 483
f 481 483 484
f 485 487 486
f 485 488 487
f 489 490 491
f 489 491 492
f 493 495 494
f 493 496 495
f 497 498 499
f 497 499 500
f 501 503 502
f 501 504 503
f 505 506 507
f 505 507 508
f 509 511 510
f 509 512 511
f 513 514 515
f 513 515 516
f 517 519 518
f 517 520 519
usemtl Marking
f 521 522 523
f 521 523 524
f 525 527 526
f 525 528 527
f 529 530 531
f 529 531 532
f 529 532 533
f 529 533 534
f 529 534 535
f 529 535 536
f 529 536 537
f 529 537 538
f 529 538 539
f 529 539 540
f 529 540 541
f 529 541 542
f 529 542 543
f 529 543 544
f 529 544 545
f 529 545 546
f 529 546 547
f 529 547 548
f 529 548 549
f 529 549 550
f 529 550 551
f 529 551 552
f 529 552 553
f 529 553 554
f 529 554 555
f 529 555 556
f 529 556 557
f 529 557 530
f 558 559 560
f 558 560 561
f 562 564 563
f 562 565 564
f 566 567 568
f 566 568 569
f 570 572 571
f 570 573 572
f 574 575 576
f 574 576 577
f 578 580 579
f 578 581 580
f 582 583 584
f 582 584 585
f 586 588 587
f 586 589 588
f 590 591 592
f 590 592 593
f 594 596 595
f 594 597 596
f 598 599 600
f 598 600 601
f 602 604 603
f 602 605 604
f 606 607 608
f 606 608 609
f 610 612 611
f 610 613 612
f 614 615 616
f 614 616 617
f 618 620 619
f 618 621 620
f 622 623 624
f 622 624 625
f 622 625 626
f 622 626 627
f 622 627 628
f 622 628 629
f 622 629 630
f 622 630 631
f 622 631 632
f 622 632 633
f 622 633 634
f 622 634 635
f 622 635 636
f 622 636 637
f 622 637 638
f 622 638 639
f 622 639 640
f 622 640 641
f 622 641 642
f 622 642 643
f 622 643 644
f 622 644 645
f 622 645 646
f 622 646 647
f 622 647 648
f 622 648 649
f 622 649 650
f 622 650 623
f 651 652 653
f 651 653 654
f 651 654 655
f 651 655 656
f 651 656 657
f 651 657 658
f 651 658 659
f 651 659 660
f 651 660 661
f 651 661 662
f 651 662 663
f 651 663 664
f 651 664 665
f 651 665 666
f 651 666 667
f 651 667 668
f 651 668 669
f 651 669 670
f 651 670 671
f 651 671 672
f 651 672 673
f 651 673 674
f 651 674 675
f 651 675 676
f 651 676 677
f 651 677 678
f 651 678 679
f 651 679 652
f 680 681 682
f 680 682 683
f 684 686 685
f 684 687 686
f 688 689 690
f 688 690 691
f 692 694 693
f 692 695 694
f 696 697 698
f 696 698 699
f 700 702 701
f 700 703 702
f 704 705 706
f 704 706 707
f 708 710 709
f 708 711 710
f 712 713 714
f 712 714 715
f 716 718 717
f 716 719 718
f 720 721 722
f 720 722 723
f 724 726 725
f 724 727 726
f 728 729 730
f 728 730 731
f 732 734 733
f 732 735 734
f 736 737 738
f 736 738 739
f 740 742 741
f 740 743 742
f 744 745 746
f 744 746 747
f 744 747 748
f 744 748 749
f 744 749 750
f 744 750 751
f 744 751 752
f 744 752 753
f 744 753 754
f 744 754 755
f 744 755 756
f 744 756 757
f 744 757 758
f 744 758 759
f 744 759 760
f 744 760 761
f 744 761 762
f 744 762 763
f 744 763 764
f 744 764 765
f 744 765 766
f 744 766 767
f 744 767 768
f 744 768 769
f 744 769 770
f 744 770 771
f 744 771 772
f 744 772 745
f 773 774 775
f 773 775 776
f 773 776 777
f 773 777 778
f 773 778 779
f 773 779 780
f 773 780 781
f 773 781 782
f 773 782 783
f 773 783 784
f 773 784 785
f 773 785 786
f 773 786 787
f 773 787 788
f 773 788 789
f 773 789 790
f 773 790 791
f 773 791 792
f 773 792 793
f 773 793 794
f 773 794 795
f 773 795 796
f 773 796 797
f 773 797 798
f 773 798 799
f 773 799 800
f 773 800 801
f 773 801 774
f 802 803 804
f 802 804 805
f 802 805 806
f 802 806 807
f 802 807 808
f 802 808 809
f 802 809 810
f 802 810 811
f 802 811 812
f 802 812 813
f 802 813 814
f 802 814 815
f 802 815 816
f 802 816 817
f 802 817 818
f 802 818 819
f 802 819 820
f 802 820 821
f 802 821 822
f 802 822 823
f 802 823 824
f 802 824 825
f 802 825 826
f 802 826 827
f 802 827 828
f 802 828 829
f 802 829 830
f 802 830 803
f 831 832 833
f 831 833 834
f 831 834 835
f 831 835 836
f 831 836 837
f 831 837 838
f 831 838 839
f 831 839 840
f 831 840 841
f 831 841 842
f 831 842 843
f 831 843 844
f 831 844 845
f 831 845 846
f 831 846 847
f 831 847 848
f 831 848 849
f 831 849 850
f 831 850 851
f 831 851 852
f 831 852 853
f 831 853 854
f 831 854 855
f 831 855 856
f 831 856 857
f 831 857 858
f 831 858 859
f 831 859 832
