# First-pass blocky goalie figure (10-11yo, butterfly stance) - NOT anatomical.
# Local origin = ground contact point between the pads; figure faces +Z.
# units: millimetres
mtllib goalie.mtl
v -114.993 0.000 -175.763
v 48.838 0.000 -61.047
v 48.838 60.000 -61.047
v -114.993 60.000 -175.763
v -215.007 0.000 315.763
v -378.838 0.000 201.047
v -378.838 60.000 201.047
v -215.007 60.000 315.763
v -378.838 0.000 201.047
v -114.993 0.000 -175.763
v -114.993 60.000 -175.763
v -378.838 60.000 201.047
v 48.838 0.000 -61.047
v -215.007 0.000 315.763
v -215.007 60.000 315.763
v 48.838 60.000 -61.047
v -114.993 60.000 -175.763
v 48.838 60.000 -61.047
v -215.007 60.000 315.763
v -378.838 60.000 201.047
v -378.838 0.000 201.047
v -215.007 0.000 315.763
v 48.838 0.000 -61.047
v -114.993 0.000 -175.763
v -48.838 0.000 -61.047
v 114.993 0.000 -175.763
v 114.993 60.000 -175.763
v -48.838 60.000 -61.047
v 378.838 0.000 201.047
v 215.007 0.000 315.763
v 215.007 60.000 315.763
v 378.838 60.000 201.047
v 215.007 0.000 315.763
v -48.838 0.000 -61.047
v -48.838 60.000 -61.047
v 215.007 60.000 315.763
v 114.993 0.000 -175.763
v 378.838 0.000 201.047
v 378.838 60.000 201.047
v 114.993 60.000 -175.763
v -48.838 60.000 -61.047
v 114.993 60.000 -175.763
v 378.838 60.000 201.047
v 215.007 60.000 315.763
v 215.007 0.000 315.763
v 378.838 0.000 201.047
v 114.993 0.000 -175.763
v -48.838 0.000 -61.047
v -110.000 80.000 -85.000
v 110.000 80.000 -85.000
v 110.000 220.000 -85.000
v -110.000 220.000 -85.000
v 110.000 80.000 65.000
v -110.000 80.000 65.000
v -110.000 220.000 65.000
v 110.000 220.000 65.000
v -110.000 80.000 65.000
v -110.000 80.000 -85.000
v -110.000 220.000 -85.000
v -110.000 220.000 65.000
v 110.000 80.000 -85.000
v 110.000 80.000 65.000
v 110.000 220.000 65.000
v 110.000 220.000 -85.000
v -110.000 220.000 -85.000
v 110.000 220.000 -85.000
v 110.000 220.000 65.000
v -110.000 220.000 65.000
v -110.000 80.000 65.000
v 110.000 80.000 65.000
v 110.000 80.000 -85.000
v -110.000 80.000 -85.000
v -120.000 240.000 -75.000
v 120.000 240.000 -75.000
v 120.000 560.000 -75.000
v -120.000 560.000 -75.000
v 120.000 240.000 75.000
v -120.000 240.000 75.000
v -120.000 560.000 75.000
v 120.000 560.000 75.000
v -120.000 240.000 75.000
v -120.000 240.000 -75.000
v -120.000 560.000 -75.000
v -120.000 560.000 75.000
v 120.000 240.000 -75.000
v 120.000 240.000 75.000
v 120.000 560.000 75.000
v 120.000 560.000 -75.000
v -120.000 560.000 -75.000
v 120.000 560.000 -75.000
v 120.000 560.000 75.000
v -120.000 560.000 75.000
v -120.000 240.000 75.000
v 120.000 240.000 75.000
v 120.000 240.000 -75.000
v -120.000 240.000 -75.000
v -152.923 560.000 -6.449
v -302.923 690.000 123.551
v -144.365 572.704 -9.279
v -294.365 702.704 120.721
v -132.962 582.892 -6.310
v -282.962 712.892 123.690
v -120.973 588.545 1.870
v -270.973 718.545 131.870
v -110.772 588.545 13.641
v -260.772 718.545 143.641
v -104.378 582.892 26.672
v -254.378 712.892 156.672
v -103.060 572.704 38.381
v -253.060 702.704 168.381
v -107.077 560.000 46.449
v -257.077 690.000 176.449
v -115.635 547.296 49.279
v -265.635 677.296 179.279
v -127.038 537.108 46.310
v -277.038 667.108 176.310
v -139.027 531.455 38.130
v -289.027 661.455 168.130
v -149.228 531.455 26.359
v -299.228 661.455 156.359
v -155.622 537.108 13.328
v -305.622 667.108 143.328
v -156.940 547.296 1.619
v -306.940 677.296 131.619
v -345.000 620.000 115.000
v -215.000 620.000 115.000
v -215.000 760.000 115.000
v -345.000 760.000 115.000
v -215.000 620.000 185.000
v -345.000 620.000 185.000
v -345.000 760.000 185.000
v -215.000 760.000 185.000
v -345.000 620.000 185.000
v -345.000 620.000 115.000
v -345.000 760.000 115.000
v -345.000 760.000 185.000
v -215.000 620.000 115.000
v -215.000 620.000 185.000
v -215.000 760.000 185.000
v -215.000 760.000 115.000
v -345.000 760.000 115.000
v -215.000 760.000 115.000
v -215.000 760.000 185.000
v -345.000 760.000 185.000
v -345.000 620.000 185.000
v -215.000 620.000 185.000
v -215.000 620.000 115.000
v -345.000 620.000 115.000
v 107.077 560.000 46.449
v 257.077 690.000 176.449
v 103.060 572.704 38.381
v 253.060 702.704 168.381
v 104.378 582.892 26.672
v 254.378 712.892 156.672
v 110.772 588.545 13.641
v 260.772 718.545 143.641
v 120.973 588.545 1.870
v 270.973 718.545 131.870
v 132.962 582.892 -6.310
v 282.962 712.892 123.690
v 144.365 572.704 -9.279
v 294.365 702.704 120.721
v 152.923 560.000 -6.449
v 302.923 690.000 123.551
v 156.940 547.296 1.619
v 306.940 677.296 131.619
v 155.622 537.108 13.328
v 305.622 667.108 143.328
v 149.228 531.455 26.359
v 299.228 661.455 156.359
v 139.027 531.455 38.130
v 289.027 661.455 168.130
v 127.038 537.108 46.310
v 277.038 667.108 176.310
v 115.635 547.296 49.279
v 265.635 677.296 179.279
v 215.000 620.000 115.000
v 345.000 620.000 115.000
v 345.000 760.000 115.000
v 215.000 760.000 115.000
v 345.000 620.000 185.000
v 215.000 620.000 185.000
v 215.000 760.000 185.000
v 345.000 760.000 185.000
v 215.000 620.000 185.000
v 215.000 620.000 115.000
v 215.000 760.000 115.000
v 215.000 760.000 185.000
v 345.000 620.000 115.000
v 345.000 620.000 185.000
v 345.000 760.000 185.000
v 345.000 760.000 115.000
v 215.000 760.000 115.000
v 345.000 760.000 115.000
v 345.000 760.000 185.000
v 215.000 760.000 185.000
v 215.000 620.000 185.000
v 345.000 620.000 185.000
v 345.000 620.000 115.000
v 215.000 620.000 115.000
v 0.000 560.000 -25.000
v 0.000 615.000 -25.000
v 19.525 560.000 -20.544
v 19.525 615.000 -20.544
v 35.182 560.000 -8.057
v 35.182 615.000 -8.057
v 43.872 560.000 9.987
v 43.872 615.000 9.987
v 43.872 560.000 30.013
v 43.872 615.000 30.013
v 35.182 560.000 48.057
v 35.182 615.000 48.057
v 19.525 560.000 60.544
v 19.525 615.000 60.544
v 0.000 560.000 65.000
v 0.000 615.000 65.000
v -19.525 560.000 60.544
v -19.525 615.000 60.544
v -35.182 560.000 48.057
v -35.182 615.000 48.057
v -43.872 560.000 30.013
v -43.872 615.000 30.013
v -43.872 560.000 9.987
v -43.872 615.000 9.987
v -35.182 560.000 -8.057
v -35.182 615.000 -8.057
v -19.525 560.000 -20.544
v -19.525 615.000 -20.544
v 0.000 815.000 15.000
v 0.000 815.000 15.000
v 0.000 815.000 15.000
v 0.000 815.000 15.000
v 0.000 815.000 15.000
v 0.000 815.000 15.000
v 0.000 815.000 15.000
v 0.000 815.000 15.000
v 0.000 815.000 15.000
v 0.000 815.000 15.000
v 0.000 815.000 15.000
v 0.000 815.000 15.000
v 0.000 815.000 15.000
v 0.000 815.000 15.000
v 0.000 815.000 15.000
v 0.000 815.000 15.000
v 0.000 815.000 15.000
v 0.000 815.000 15.000
v 0.000 815.000 15.000
v 0.000 815.000 15.000
v 0.000 815.000 15.000
v 0.000 815.000 15.000
v 0.000 815.000 15.000
v 0.000 815.000 15.000
v 0.000 815.000 15.000
v 0.000 815.000 15.000
v 0.000 815.000 15.000
v 0.000 815.000 15.000
v 15.643 813.769 15.000
v 15.251 813.769 18.481
v 14.094 813.769 21.787
v 12.231 813.769 24.754
v 9.754 813.769 27.231
v 6.787 813.769 29.094
v 3.481 813.769 30.251
v 0.000 813.769 30.643
v -3.481 813.769 30.251
v -6.787 813.769 29.094
v -9.754 813.769 27.231
v -12.231 813.769 24.754
v -14.094 813.769 21.787
v -15.251 813.769 18.481
v -15.643 813.769 15.000
v -15.251 813.769 11.519
v -14.094 813.769 8.213
v -12.231 813.769 5.246
v -9.754 813.769 2.769
v -6.787 813.769 0.906
v -3.481 813.769 -0.251
v -0.000 813.769 -0.643
v 3.481 813.769 -0.251
v 6.787 813.769 0.906
v 9.754 813.769 2.769
v 12.231 813.769 5.246
v 14.094 813.769 8.213
v 15.251 813.769 11.519
v 30.902 810.106 15.000
v 30.127 810.106 21.876
v 27.841 810.106 28.408
v 24.160 810.106 34.267
v 19.267 810.106 39.160
v 13.408 810.106 42.841
v 6.876 810.106 45.127
v 0.000 810.106 45.902
v -6.876 810.106 45.127
v -13.408 810.106 42.841
v -19.267 810.106 39.160
v -24.160 810.106 34.267
v -27.841 810.106 28.408
v -30.127 810.106 21.876
v -30.902 810.106 15.000
v -30.127 810.106 8.124
v -27.841 810.106 1.592
v -24.160 810.106 -4.267
v -19.267 810.106 -9.160
v -13.408 810.106 -12.841
v -6.876 810.106 -15.127
v -0.000 810.106 -15.902
v 6.876 810.106 -15.127
v 13.408 810.106 -12.841
v 19.267 810.106 -9.160
v 24.160 810.106 -4.267
v 27.841 810.106 1.592
v 30.127 810.106 8.124
v 45.399 804.101 15.000
v 44.261 804.101 25.102
v 40.903 804.101 34.698
v 35.494 804.101 43.306
v 28.306 804.101 50.494
v 19.698 804.101 55.903
v 10.102 804.101 59.261
v 0.000 804.101 60.399
v -10.102 804.101 59.261
v -19.698 804.101 55.903
v -28.306 804.101 50.494
v -35.494 804.101 43.306
v -40.903 804.101 34.698
v -44.261 804.101 25.102
v -45.399 804.101 15.000
v -44.261 804.101 4.898
v -40.903 804.101 -4.698
v -35.494 804.101 -13.306
v -28.306 804.101 -20.494
v -19.698 804.101 -25.903
v -10.102 804.101 -29.261
v -0.000 804.101 -30.399
v 10.102 804.101 -29.261
v 19.698 804.101 -25.903
v 28.306 804.101 -20.494
v 35.494 804.101 -13.306
v 40.903 804.101 -4.698
v 44.261 804.101 4.898
v 58.779 795.902 15.000
v 57.305 795.902 28.079
v 52.958 795.902 40.503
v 45.955 795.902 51.648
v 36.648 795.902 60.955
v 25.503 795.902 67.958
v 13.079 795.902 72.305
v 0.000 795.902 73.779
v -13.079 795.902 72.305
v -25.503 795.902 67.958
v -36.648 795.902 60.955
v -45.955 795.902 51.648
v -52.958 795.902 40.503
v -57.305 795.902 28.079
v -58.779 795.902 15.000
v -57.305 795.902 1.921
v -52.958 795.902 -10.503
v -45.955 795.902 -21.648
v -36.648 795.902 -30.955
v -25.503 795.902 -37.958
v -13.079 795.902 -42.305
v -0.000 795.902 -43.779
v 13.079 795.902 -42.305
v 25.503 795.902 -37.958
v 36.648 795.902 -30.955
v 45.955 795.902 -21.648
v 52.958 795.902 -10.503
v 57.305 795.902 1.921
v 70.711 785.711 15.000
v 68.938 785.711 30.735
v 63.708 785.711 45.680
v 55.284 785.711 59.087
v 44.087 785.711 70.284
v 30.680 785.711 78.708
v 15.735 785.711 83.938
v 0.000 785.711 85.711
v -15.735 785.711 83.938
v -30.680 785.711 78.708
v -44.087 785.711 70.284
v -55.284 785.711 59.087
v -63.708 785.711 45.680
v -68.938 785.711 30.735
v -70.711 785.711 15.000
v -68.938 785.711 -0.735
v -63.708 785.711 -15.680
v -55.284 785.711 -29.087
v -44.087 785.711 -40.284
v -30.680 785.711 -48.708
v -15.735 785.711 -53.938
v -0.000 785.711 -55.711
v 15.735 785.711 -53.938
v 30.680 785.711 -48.708
v 44.087 785.711 -40.284
v 55.284 785.711 -29.087
v 63.708 785.711 -15.680
v 68.938 785.711 -0.735
v 80.902 773.779 15.000
v 78.873 773.779 33.002
v 72.890 773.779 50.102
v 63.251 773.779 65.441
v 50.441 773.779 78.251
v 35.102 773.779 87.890
v 18.002 773.779 93.873
v 0.000 773.779 95.902
v -18.002 773.779 93.873
v -35.102 773.779 87.890
v -50.441 773.779 78.251
v -63.251 773.779 65.441
v -72.890 773.779 50.102
v -78.873 773.779 33.002
v -80.902 773.779 15.000
v -78.873 773.779 -3.002
v -72.890 773.779 -20.102
v -63.251 773.779 -35.441
v -50.441 773.779 -48.251
v -35.102 773.779 -57.890
v -18.002 773.779 -63.873
v -0.000 773.779 -65.902
v 18.002 773.779 -63.873
v 35.102 773.779 -57.890
v 50.441 773.779 -48.251
v 63.251 773.779 -35.441
v 72.890 773.779 -20.102
v 78.873 773.779 -3.002
v 89.101 760.399 15.000
v 86.867 760.399 34.827
v 80.277 760.399 53.659
v 69.662 760.399 70.553
v 55.553 760.399 84.662
v 38.659 760.399 95.277
v 19.827 760.399 101.867
v 0.000 760.399 104.101
v -19.827 760.399 101.867
v -38.659 760.399 95.277
v -55.553 760.399 84.662
v -69.662 760.399 70.553
v -80.277 760.399 53.659
v -86.867 760.399 34.827
v -89.101 760.399 15.000
v -86.867 760.399 -4.827
v -80.277 760.399 -23.659
v -69.662 760.399 -40.553
v -55.553 760.399 -54.662
v -38.659 760.399 -65.277
v -19.827 760.399 -71.867
v -0.000 760.399 -74.101
v 19.827 760.399 -71.867
v 38.659 760.399 -65.277
v 55.553 760.399 -54.662
v 69.662 760.399 -40.553
v 80.277 760.399 -23.659
v 86.867 760.399 -4.827
v 95.106 745.902 15.000
v 92.721 745.902 36.163
v 85.687 745.902 56.265
v 74.357 745.902 74.297
v 59.297 745.902 89.357
v 41.265 745.902 100.687
v 21.163 745.902 107.721
v 0.000 745.902 110.106
v -21.163 745.902 107.721
v -41.265 745.902 100.687
v -59.297 745.902 89.357
v -74.357 745.902 74.297
v -85.687 745.902 56.265
v -92.721 745.902 36.163
v -95.106 745.902 15.000
v -92.721 745.902 -6.163
v -85.687 745.902 -26.265
v -74.357 745.902 -44.297
v -59.297 745.902 -59.357
v -41.265 745.902 -70.687
v -21.163 745.902 -77.721
v -0.000 745.902 -80.106
v 21.163 745.902 -77.721
v 41.265 745.902 -70.687
v 59.297 745.902 -59.357
v 74.357 745.902 -44.297
v 85.687 745.902 -26.265
v 92.721 745.902 -6.163
v 98.769 730.643 15.000
v 96.292 730.643 36.978
v 88.988 730.643 57.854
v 77.221 730.643 76.581
v 61.581 730.643 92.221
v 42.854 730.643 103.988
v 21.978 730.643 111.292
v 0.000 730.643 113.769
v -21.978 730.643 111.292
v -42.854 730.643 103.988
v -61.581 730.643 92.221
v -77.221 730.643 76.581
v -88.988 730.643 57.854
v -96.292 730.643 36.978
v -98.769 730.643 15.000
v -96.292 730.643 -6.978
v -88.988 730.643 -27.854
v -77.221 730.643 -46.581
v -61.581 730.643 -62.221
v -42.854 730.643 -73.988
v -21.978 730.643 -81.292
v -0.000 730.643 -83.769
v 21.978 730.643 -81.292
v 42.854 730.643 -73.988
v 61.581 730.643 -62.221
v 77.221 730.643 -46.581
v 88.988 730.643 -27.854
v 96.292 730.643 -6.978
v 100.000 715.000 15.000
v 97.493 715.000 37.252
v 90.097 715.000 58.388
v 78.183 715.000 77.349
v 62.349 715.000 93.183
v 43.388 715.000 105.097
v 22.252 715.000 112.493
v 0.000 715.000 115.000
v -22.252 715.000 112.493
v -43.388 715.000 105.097
v -62.349 715.000 93.183
v -78.183 715.000 77.349
v -90.097 715.000 58.388
v -97.493 715.000 37.252
v -100.000 715.000 15.000
v -97.493 715.000 -7.252
v -90.097 715.000 -28.388
v -78.183 715.000 -47.349
v -62.349 715.000 -63.183
v -43.388 715.000 -75.097
v -22.252 715.000 -82.493
v -0.000 715.000 -85.000
v 22.252 715.000 -82.493
v 43.388 715.000 -75.097
v 62.349 715.000 -63.183
v 78.183 715.000 -47.349
v 90.097 715.000 -28.388
v 97.493 715.000 -7.252
v 98.769 699.357 15.000
v 96.292 699.357 36.978
v 88.988 699.357 57.854
v 77.221 699.357 76.581
v 61.581 699.357 92.221
v 42.854 699.357 103.988
v 21.978 699.357 111.292
v 0.000 699.357 113.769
v -21.978 699.357 111.292
v -42.854 699.357 103.988
v -61.581 699.357 92.221
v -77.221 699.357 76.581
v -88.988 699.357 57.854
v -96.292 699.357 36.978
v -98.769 699.357 15.000
v -96.292 699.357 -6.978
v -88.988 699.357 -27.854
v -77.221 699.357 -46.581
v -61.581 699.357 -62.221
v -42.854 699.357 -73.988
v -21.978 699.357 -81.292
v -0.000 699.357 -83.769
v 21.978 699.357 -81.292
v 42.854 699.357 -73.988
v 61.581 699.357 -62.221
v 77.221 699.357 -46.581
v 88.988 699.357 -27.854
v 96.292 699.357 -6.978
v 95.106 684.098 15.000
v 92.721 684.098 36.163
v 85.687 684.098 56.265
v 74.357 684.098 74.297
v 59.297 684.098 89.357
v 41.265 684.098 100.687
v 21.163 684.098 107.721
v 0.000 684.098 110.106
v -21.163 684.098 107.721
v -41.265 684.098 100.687
v -59.297 684.098 89.357
v -74.357 684.098 74.297
v -85.687 684.098 56.265
v -92.721 684.098 36.163
v -95.106 684.098 15.000
v -92.721 684.098 -6.163
v -85.687 684.098 -26.265
v -74.357 684.098 -44.297
v -59.297 684.098 -59.357
v -41.265 684.098 -70.687
v -21.163 684.098 -77.721
v -0.000 684.098 -80.106
v 21.163 684.098 -77.721
v 41.265 684.098 -70.687
v 59.297 684.098 -59.357
v 74.357 684.098 -44.297
v 85.687 684.098 -26.265
v 92.721 684.098 -6.163
v 89.101 669.601 15.000
v 86.867 669.601 34.827
v 80.277 669.601 53.659
v 69.662 669.601 70.553
v 55.553 669.601 84.662
v 38.659 669.601 95.277
v 19.827 669.601 101.867
v 0.000 669.601 104.101
v -19.827 669.601 101.867
v -38.659 669.601 95.277
v -55.553 669.601 84.662
v -69.662 669.601 70.553
v -80.277 669.601 53.659
v -86.867 669.601 34.827
v -89.101 669.601 15.000
v -86.867 669.601 -4.827
v -80.277 669.601 -23.659
v -69.662 669.601 -40.553
v -55.553 669.601 -54.662
v -38.659 669.601 -65.277
v -19.827 669.601 -71.867
v -0.000 669.601 -74.101
v 19.827 669.601 -71.867
v 38.659 669.601 -65.277
v 55.553 669.601 -54.662
v 69.662 669.601 -40.553
v 80.277 669.601 -23.659
v 86.867 669.601 -4.827
v 80.902 656.221 15.000
v 78.873 656.221 33.002
v 72.890 656.221 50.102
v 63.251 656.221 65.441
v 50.441 656.221 78.251
v 35.102 656.221 87.890
v 18.002 656.221 93.873
v 0.000 656.221 95.902
v -18.002 656.221 93.873
v -35.102 656.221 87.890
v -50.441 656.221 78.251
v -63.251 656.221 65.441
v -72.890 656.221 50.102
v -78.873 656.221 33.002
v -80.902 656.221 15.000
v -78.873 656.221 -3.002
v -72.890 656.221 -20.102
v -63.251 656.221 -35.441
v -50.441 656.221 -48.251
v -35.102 656.221 -57.890
v -18.002 656.221 -63.873
v -0.000 656.221 -65.902
v 18.002 656.221 -63.873
v 35.102 656.221 -57.890
v 50.441 656.221 -48.251
v 63.251 656.221 -35.441
v 72.890 656.221 -20.102
v 78.873 656.221 -3.002
v 70.711 644.289 15.000
v 68.938 644.289 30.735
v 63.708 644.289 45.680
v 55.284 644.289 59.087
v 44.087 644.289 70.284
v 30.680 644.289 78.708
v 15.735 644.289 83.938
v 0.000 644.289 85.711
v -15.735 644.289 83.938
v -30.680 644.289 78.708
v -44.087 644.289 70.284
v -55.284 644.289 59.087
v -63.708 644.289 45.680
v -68.938 644.289 30.735
v -70.711 644.289 15.000
v -68.938 644.289 -0.735
v -63.708 644.289 -15.680
v -55.284 644.289 -29.087
v -44.087 644.289 -40.284
v -30.680 644.289 -48.708
v -15.735 644.289 -53.938
v -0.000 644.289 -55.711
v 15.735 644.289 -53.938
v 30.680 644.289 -48.708
v 44.087 644.289 -40.284
v 55.284 644.289 -29.087
v 63.708 644.289 -15.680
v 68.938 644.289 -0.735
v 58.779 634.098 15.000
v 57.305 634.098 28.079
v 52.958 634.098 40.503
v 45.955 634.098 51.648
v 36.648 634.098 60.955
v 25.503 634.098 67.958
v 13.079 634.098 72.305
v 0.000 634.098 73.779
v -13.079 634.098 72.305
v -25.503 634.098 67.958
v -36.648 634.098 60.955
v -45.955 634.098 51.648
v -52.958 634.098 40.503
v -57.305 634.098 28.079
v -58.779 634.098 15.000
v -57.305 634.098 1.921
v -52.958 634.098 -10.503
v -45.955 634.098 -21.648
v -36.648 634.098 -30.955
v -25.503 634.098 -37.958
v -13.079 634.098 -42.305
v -0.000 634.098 -43.779
v 13.079 634.098 -42.305
v 25.503 634.098 -37.958
v 36.648 634.098 -30.955
v 45.955 634.098 -21.648
v 52.958 634.098 -10.503
v 57.305 634.098 1.921
v 45.399 625.899 15.000
v 44.261 625.899 25.102
v 40.903 625.899 34.698
v 35.494 625.899 43.306
v 28.306 625.899 50.494
v 19.698 625.899 55.903
v 10.102 625.899 59.261
v 0.000 625.899 60.399
v -10.102 625.899 59.261
v -19.698 625.899 55.903
v -28.306 625.899 50.494
v -35.494 625.899 43.306
v -40.903 625.899 34.698
v -44.261 625.899 25.102
v -45.399 625.899 15.000
v -44.261 625.899 4.898
v -40.903 625.899 -4.698
v -35.494 625.899 -13.306
v -28.306 625.899 -20.494
v -19.698 625.899 -25.903
v -10.102 625.899 -29.261
v -0.000 625.899 -30.399
v 10.102 625.899 -29.261
v 19.698 625.899 -25.903
v 28.306 625.899 -20.494
v 35.494 625.899 -13.306
v 40.903 625.899 -4.698
v 44.261 625.899 4.898
v 30.902 619.894 15.000
v 30.127 619.894 21.876
v 27.841 619.894 28.408
v 24.160 619.894 34.267
v 19.267 619.894 39.160
v 13.408 619.894 42.841
v 6.876 619.894 45.127
v 0.000 619.894 45.902
v -6.876 619.894 45.127
v -13.408 619.894 42.841
v -19.267 619.894 39.160
v -24.160 619.894 34.267
v -27.841 619.894 28.408
v -30.127 619.894 21.876
v -30.902 619.894 15.000
v -30.127 619.894 8.124
v -27.841 619.894 1.592
v -24.160 619.894 -4.267
v -19.267 619.894 -9.160
v -13.408 619.894 -12.841
v -6.876 619.894 -15.127
v -0.000 619.894 -15.902
v 6.876 619.894 -15.127
v 13.408 619.894 -12.841
v 19.267 619.894 -9.160
v 24.160 619.894 -4.267
v 27.841 619.894 1.592
v 30.127 619.894 8.124
v 15.643 616.231 15.000
v 15.251 616.231 18.481
v 14.094 616.231 21.787
v 12.231 616.231 24.754
v 9.754 616.231 27.231
v 6.787 616.231 29.094
v 3.481 616.231 30.251
v 0.000 616.231 30.643
v -3.481 616.231 30.251
v -6.787 616.231 29.094
v -9.754 616.231 27.231
v -12.231 616.231 24.754
v -14.094 616.231 21.787
v -15.251 616.231 18.481
v -15.643 616.231 15.000
v -15.251 616.231 11.519
v -14.094 616.231 8.213
v -12.231 616.231 5.246
v -9.754 616.231 2.769
v -6.787 616.231 0.906
v -3.481 616.231 -0.251
v -0.000 616.231 -0.643
v 3.481 616.231 -0.251
v 6.787 616.231 0.906
v 9.754 616.231 2.769
v 12.231 616.231 5.246
v 14.094 616.231 8.213
v 15.251 616.231 11.519
v 0.000 615.000 15.000
v 0.000 615.000 15.000
v 0.000 615.000 15.000
v 0.000 615.000 15.000
v 0.000 615.000 15.000
v 0.000 615.000 15.000
v 0.000 615.000 15.000
v 0.000 615.000 15.000
v -0.000 615.000 15.000
v -0.000 615.000 15.000
v -0.000 615.000 15.000
v -0.000 615.000 15.000
v -0.000 615.000 15.000
v -0.000 615.000 15.000
v -0.000 615.000 15.000
v -0.000 615.000 15.000
v -0.000 615.000 15.000
v -0.000 615.000 15.000
v -0.000 615.000 15.000
v -0.000 615.000 15.000
v -0.000 615.000 15.000
v -0.000 615.000 15.000
v 0.000 615.000 15.000
v 0.000 615.000 15.000
v 0.000 615.000 15.000
v 0.000 615.000 15.000
v 0.000 615.000 15.000
v 0.000 615.000 15.000
v 0.000 760.000 90.000
v 0.000 760.000 90.000
v 0.000 760.000 90.000
v 0.000 760.000 90.000
v 0.000 760.000 90.000
v 0.000 760.000 90.000
v 0.000 760.000 90.000
v 0.000 760.000 90.000
v 0.000 760.000 90.000
v 0.000 760.000 90.000
v 0.000 760.000 90.000
v 0.000 760.000 90.000
v 0.000 760.000 90.000
v 0.000 760.000 90.000
v 0.000 760.000 90.000
v 0.000 760.000 90.000
v 0.000 760.000 90.000
v 0.000 760.000 90.000
v 0.000 760.000 90.000
v 0.000 760.000 90.000
v 0.000 760.000 90.000
v 0.000 760.000 90.000
v 0.000 760.000 90.000
v 0.000 760.000 90.000
v 0.000 760.000 90.000
v 0.000 760.000 90.000
v 0.000 760.000 90.000
v 0.000 760.000 90.000
v 8.604 759.323 90.000
v 8.388 759.323 91.915
v 7.752 759.323 93.733
v 6.727 759.323 95.364
v 5.364 759.323 96.727
v 3.733 759.323 97.752
v 1.915 759.323 98.388
v 0.000 759.323 98.604
v -1.915 759.323 98.388
v -3.733 759.323 97.752
v -5.364 759.323 96.727
v -6.727 759.323 95.364
v -7.752 759.323 93.733
v -8.388 759.323 91.915
v -8.604 759.323 90.000
v -8.388 759.323 88.085
v -7.752 759.323 86.267
v -6.727 759.323 84.636
v -5.364 759.323 83.273
v -3.733 759.323 82.248
v -1.915 759.323 81.612
v -0.000 759.323 81.396
v 1.915 759.323 81.612
v 3.733 759.323 82.248
v 5.364 759.323 83.273
v 6.727 759.323 84.636
v 7.752 759.323 86.267
v 8.388 759.323 88.085
v 16.996 757.308 90.000
v 16.570 757.308 93.782
v 15.313 757.308 97.374
v 13.288 757.308 100.597
v 10.597 757.308 103.288
v 7.374 757.308 105.313
v 3.782 757.308 106.570
v 0.000 757.308 106.996
v -3.782 757.308 106.570
v -7.374 757.308 105.313
v -10.597 757.308 103.288
v -13.288 757.308 100.597
v -15.313 757.308 97.374
v -16.570 757.308 93.782
v -16.996 757.308 90.000
v -16.570 757.308 86.218
v -15.313 757.308 82.626
v -13.288 757.308 79.403
v -10.597 757.308 76.712
v -7.374 757.308 74.687
v -3.782 757.308 73.430
v -0.000 757.308 73.004
v 3.782 757.308 73.430
v 7.374 757.308 74.687
v 10.597 757.308 76.712
v 13.288 757.308 79.403
v 15.313 757.308 82.626
v 16.570 757.308 86.218
v 24.969 754.005 90.000
v 24.343 754.005 95.556
v 22.497 754.005 100.834
v 19.522 754.005 105.568
v 15.568 754.005 109.522
v 10.834 754.005 112.497
v 5.556 754.005 114.343
v 0.000 754.005 114.969
v -5.556 754.005 114.343
v -10.834 754.005 112.497
v -15.568 754.005 109.522
v -19.522 754.005 105.568
v -22.497 754.005 100.834
v -24.343 754.005 95.556
v -24.969 754.005 90.000
v -24.343 754.005 84.444
v -22.497 754.005 79.166
v -19.522 754.005 74.432
v -15.568 754.005 70.478
v -10.834 754.005 67.503
v -5.556 754.005 65.657
v -0.000 754.005 65.031
v 5.556 754.005 65.657
v 10.834 754.005 67.503
v 15.568 754.005 70.478
v 19.522 754.005 74.432
v 22.497 754.005 79.166
v 24.343 754.005 84.444
v 32.328 749.496 90.000
v 31.518 749.496 97.194
v 29.127 749.496 104.027
v 25.275 749.496 110.156
v 20.156 749.496 115.275
v 14.027 749.496 119.127
v 7.194 749.496 121.518
v 0.000 749.496 122.328
v -7.194 749.496 121.518
v -14.027 749.496 119.127
v -20.156 749.496 115.275
v -25.275 749.496 110.156
v -29.127 749.496 104.027
v -31.518 749.496 97.194
v -32.328 749.496 90.000
v -31.518 749.496 82.806
v -29.127 749.496 75.973
v -25.275 749.496 69.844
v -20.156 749.496 64.725
v -14.027 749.496 60.873
v -7.194 749.496 58.482
v -0.000 749.496 57.672
v 7.194 749.496 58.482
v 14.027 749.496 60.873
v 20.156 749.496 64.725
v 25.275 749.496 69.844
v 29.127 749.496 75.973
v 31.518 749.496 82.806
v 38.891 743.891 90.000
v 37.916 743.891 98.654
v 35.039 743.891 106.874
v 30.406 743.891 114.248
v 24.248 743.891 120.406
v 16.874 743.891 125.039
v 8.654 743.891 127.916
v 0.000 743.891 128.891
v -8.654 743.891 127.916
v -16.874 743.891 125.039
v -24.248 743.891 120.406
v -30.406 743.891 114.248
v -35.039 743.891 106.874
v -37.916 743.891 98.654
v -38.891 743.891 90.000
v -37.916 743.891 81.346
v -35.039 743.891 73.126
v -30.406 743.891 65.752
v -24.248 743.891 59.594
v -16.874 743.891 54.961
v -8.654 743.891 52.084
v -0.000 743.891 51.109
v 8.654 743.891 52.084
v 16.874 743.891 54.961
v 24.248 743.891 59.594
v 30.406 743.891 65.752
v 35.039 743.891 73.126
v 37.916 743.891 81.346
v 44.496 737.328 90.000
v 43.380 737.328 99.901
v 40.089 737.328 109.306
v 34.788 737.328 117.743
v 27.743 737.328 124.788
v 19.306 737.328 130.089
v 9.901 737.328 133.380
v 0.000 737.328 134.496
v -9.901 737.328 133.380
v -19.306 737.328 130.089
v -27.743 737.328 124.788
v -34.788 737.328 117.743
v -40.089 737.328 109.306
v -43.380 737.328 99.901
v -44.496 737.328 90.000
v -43.380 737.328 80.099
v -40.089 737.328 70.694
v -34.788 737.328 62.257
v -27.743 737.328 55.212
v -19.306 737.328 49.911
v -9.901 737.328 46.620
v -0.000 737.328 45.504
v 9.901 737.328 46.620
v 19.306 737.328 49.911
v 27.743 737.328 55.212
v 34.788 737.328 62.257
v 40.089 737.328 70.694
v 43.380 737.328 80.099
v 49.005 729.969 90.000
v 47.777 729.969 100.905
v 44.152 729.969 111.263
v 38.314 729.969 120.554
v 30.554 729.969 128.314
v 21.263 729.969 134.152
v 10.905 729.969 137.777
v 0.000 729.969 139.005
v -10.905 729.969 137.777
v -21.263 729.969 134.152
v -30.554 729.969 128.314
v -38.314 729.969 120.554
v -44.152 729.969 111.263
v -47.777 729.969 100.905
v -49.005 729.969 90.000
v -47.777 729.969 79.095
v -44.152 729.969 68.737
v -38.314 729.969 59.446
v -30.554 729.969 51.686
v -21.263 729.969 45.848
v -10.905 729.969 42.223
v -0.000 729.969 40.995
v 10.905 729.969 42.223
v 21.263 729.969 45.848
v 30.554 729.969 51.686
v 38.314 729.969 59.446
v 44.152 729.969 68.737
v 47.777 729.969 79.095
v 52.308 721.996 90.000
v 50.997 721.996 101.640
v 47.128 721.996 112.696
v 40.896 721.996 122.614
v 32.614 721.996 130.896
v 22.696 721.996 137.128
v 11.640 721.996 140.997
v 0.000 721.996 142.308
v -11.640 721.996 140.997
v -22.696 721.996 137.128
v -32.614 721.996 130.896
v -40.896 721.996 122.614
v -47.128 721.996 112.696
v -50.997 721.996 101.640
v -52.308 721.996 90.000
v -50.997 721.996 78.360
v -47.128 721.996 67.304
v -40.896 721.996 57.386
v -32.614 721.996 49.104
v -22.696 721.996 42.872
v -11.640 721.996 39.003
v -0.000 721.996 37.692
v 11.640 721.996 39.003
v 22.696 721.996 42.872
v 32.614 721.996 49.104
v 40.896 721.996 57.386
v 47.128 721.996 67.304
v 50.997 721.996 78.360
v 54.323 713.604 90.000
v 52.961 713.604 102.088
v 48.943 713.604 113.570
v 42.471 713.604 123.870
v 33.870 713.604 132.471
v 23.570 713.604 138.943
v 12.088 713.604 142.961
v 0.000 713.604 144.323
v -12.088 713.604 142.961
v -23.570 713.604 138.943
v -33.870 713.604 132.471
v -42.471 713.604 123.870
v -48.943 713.604 113.570
v -52.961 713.604 102.088
v -54.323 713.604 90.000
v -52.961 713.604 77.912
v -48.943 713.604 66.430
v -42.471 713.604 56.130
v -33.870 713.604 47.529
v -23.570 713.604 41.057
v -12.088 713.604 37.039
v -0.000 713.604 35.677
v 12.088 713.604 37.039
v 23.570 713.604 41.057
v 33.870 713.604 47.529
v 42.471 713.604 56.130
v 48.943 713.604 66.430
v 52.961 713.604 77.912
v 55.000 705.000 90.000
v 53.621 705.000 102.239
v 49.553 705.000 113.864
v 43.001 705.000 124.292
v 34.292 705.000 133.001
v 23.864 705.000 139.553
v 12.239 705.000 143.621
v 0.000 705.000 145.000
v -12.239 705.000 143.621
v -23.864 705.000 139.553
v -34.292 705.000 133.001
v -43.001 705.000 124.292
v -49.553 705.000 113.864
v -53.621 705.000 102.239
v -55.000 705.000 90.000
v -53.621 705.000 77.761
v -49.553 705.000 66.136
v -43.001 705.000 55.708
v -34.292 705.000 46.999
v -23.864 705.000 40.447
v -12.239 705.000 36.379
v -0.000 705.000 35.000
v 12.239 705.000 36.379
v 23.864 705.000 40.447
v 34.292 705.000 46.999
v 43.001 705.000 55.708
v 49.553 705.000 66.136
v 53.621 705.000 77.761
v 54.323 696.396 90.000
v 52.961 696.396 102.088
v 48.943 696.396 113.570
v 42.471 696.396 123.870
v 33.870 696.396 132.471
v 23.570 696.396 138.943
v 12.088 696.396 142.961
v 0.000 696.396 144.323
v -12.088 696.396 142.961
v -23.570 696.396 138.943
v -33.870 696.396 132.471
v -42.471 696.396 123.870
v -48.943 696.396 113.570
v -52.961 696.396 102.088
v -54.323 696.396 90.000
v -52.961 696.396 77.912
v -48.943 696.396 66.430
v -42.471 696.396 56.130
v -33.870 696.396 47.529
v -23.570 696.396 41.057
v -12.088 696.396 37.039
v -0.000 696.396 35.677
v 12.088 696.396 37.039
v 23.570 696.396 41.057
v 33.870 696.396 47.529
v 42.471 696.396 56.130
v 48.943 696.396 66.430
v 52.961 696.396 77.912
v 52.308 688.004 90.000
v 50.997 688.004 101.640
v 47.128 688.004 112.696
v 40.896 688.004 122.614
v 32.614 688.004 130.896
v 22.696 688.004 137.128
v 11.640 688.004 140.997
v 0.000 688.004 142.308
v -11.640 688.004 140.997
v -22.696 688.004 137.128
v -32.614 688.004 130.896
v -40.896 688.004 122.614
v -47.128 688.004 112.696
v -50.997 688.004 101.640
v -52.308 688.004 90.000
v -50.997 688.004 78.360
v -47.128 688.004 67.304
v -40.896 688.004 57.386
v -32.614 688.004 49.104
v -22.696 688.004 42.872
v -11.640 688.004 39.003
v -0.000 688.004 37.692
v 11.640 688.004 39.003
v 22.696 688.004 42.872
v 32.614 688.004 49.104
v 40.896 688.004 57.386
v 47.128 688.004 67.304
v 50.997 688.004 78.360
v 49.005 680.031 90.000
v 47.777 680.031 100.905
v 44.152 680.031 111.263
v 38.314 680.031 120.554
v 30.554 680.031 128.314
v 21.263 680.031 134.152
v 10.905 680.031 137.777
v 0.000 680.031 139.005
v -10.905 680.031 137.777
v -21.263 680.031 134.152
v -30.554 680.031 128.314
v -38.314 680.031 120.554
v -44.152 680.031 111.263
v -47.777 680.031 100.905
v -49.005 680.031 90.000
v -47.777 680.031 79.095
v -44.152 680.031 68.737
v -38.314 680.031 59.446
v -30.554 680.031 51.686
v -21.263 680.031 45.848
v -10.905 680.031 42.223
v -0.000 680.031 40.995
v 10.905 680.031 42.223
v 21.263 680.031 45.848
v 30.554 680.031 51.686
v 38.314 680.031 59.446
v 44.152 680.031 68.737
v 47.777 680.031 79.095
v 44.496 672.672 90.000
v 43.380 672.672 99.901
v 40.089 672.672 109.306
v 34.788 672.672 117.743
v 27.743 672.672 124.788
v 19.306 672.672 130.089
v 9.901 672.672 133.380
v 0.000 672.672 134.496
v -9.901 672.672 133.380
v -19.306 672.672 130.089
v -27.743 672.672 124.788
v -34.788 672.672 117.743
v -40.089 672.672 109.306
v -43.380 672.672 99.901
v -44.496 672.672 90.000
v -43.380 672.672 80.099
v -40.089 672.672 70.694
v -34.788 672.672 62.257
v -27.743 672.672 55.212
v -19.306 672.672 49.911
v -9.901 672.672 46.620
v -0.000 672.672 45.504
v 9.901 672.672 46.620
v 19.306 672.672 49.911
v 27.743 672.672 55.212
v 34.788 672.672 62.257
v 40.089 672.672 70.694
v 43.380 672.672 80.099
v 38.891 666.109 90.000
v 37.916 666.109 98.654
v 35.039 666.109 106.874
v 30.406 666.109 114.248
v 24.248 666.109 120.406
v 16.874 666.109 125.039
v 8.654 666.109 127.916
v 0.000 666.109 128.891
v -8.654 666.109 127.916
v -16.874 666.109 125.039
v -24.248 666.109 120.406
v -30.406 666.109 114.248
v -35.039 666.109 106.874
v -37.916 666.109 98.654
v -38.891 666.109 90.000
v -37.916 666.109 81.346
v -35.039 666.109 73.126
v -30.406 666.109 65.752
v -24.248 666.109 59.594
v -16.874 666.109 54.961
v -8.654 666.109 52.084
v -0.000 666.109 51.109
v 8.654 666.109 52.084
v 16.874 666.109 54.961
v 24.248 666.109 59.594
v 30.406 666.109 65.752
v 35.039 666.109 73.126
v 37.916 666.109 81.346
v 32.328 660.504 90.000
v 31.518 660.504 97.194
v 29.127 660.504 104.027
v 25.275 660.504 110.156
v 20.156 660.504 115.275
v 14.027 660.504 119.127
v 7.194 660.504 121.518
v 0.000 660.504 122.328
v -7.194 660.504 121.518
v -14.027 660.504 119.127
v -20.156 660.504 115.275
v -25.275 660.504 110.156
v -29.127 660.504 104.027
v -31.518 660.504 97.194
v -32.328 660.504 90.000
v -31.518 660.504 82.806
v -29.127 660.504 75.973
v -25.275 660.504 69.844
v -20.156 660.504 64.725
v -14.027 660.504 60.873
v -7.194 660.504 58.482
v -0.000 660.504 57.672
v 7.194 660.504 58.482
v 14.027 660.504 60.873
v 20.156 660.504 64.725
v 25.275 660.504 69.844
v 29.127 660.504 75.973
v 31.518 660.504 82.806
v 24.969 655.995 90.000
v 24.343 655.995 95.556
v 22.497 655.995 100.834
v 19.522 655.995 105.568
v 15.568 655.995 109.522
v 10.834 655.995 112.497
v 5.556 655.995 114.343
v 0.000 655.995 114.969
v -5.556 655.995 114.343
v -10.834 655.995 112.497
v -15.568 655.995 109.522
v -19.522 655.995 105.568
v -22.497 655.995 100.834
v -24.343 655.995 95.556
v -24.969 655.995 90.000
v -24.343 655.995 84.444
v -22.497 655.995 79.166
v -19.522 655.995 74.432
v -15.568 655.995 70.478
v -10.834 655.995 67.503
v -5.556 655.995 65.657
v -0.000 655.995 65.031
v 5.556 655.995 65.657
v 10.834 655.995 67.503
v 15.568 655.995 70.478
v 19.522 655.995 74.432
v 22.497 655.995 79.166
v 24.343 655.995 84.444
v 16.996 652.692 90.000
v 16.570 652.692 93.782
v 15.313 652.692 97.374
v 13.288 652.692 100.597
v 10.597 652.692 103.288
v 7.374 652.692 105.313
v 3.782 652.692 106.570
v 0.000 652.692 106.996
v -3.782 652.692 106.570
v -7.374 652.692 105.313
v -10.597 652.692 103.288
v -13.288 652.692 100.597
v -15.313 652.692 97.374
v -16.570 652.692 93.782
v -16.996 652.692 90.000
v -16.570 652.692 86.218
v -15.313 652.692 82.626
v -13.288 652.692 79.403
v -10.597 652.692 76.712
v -7.374 652.692 74.687
v -3.782 652.692 73.430
v -0.000 652.692 73.004
v 3.782 652.692 73.430
v 7.374 652.692 74.687
v 10.597 652.692 76.712
v 13.288 652.692 79.403
v 15.313 652.692 82.626
v 16.570 652.692 86.218
v 8.604 650.677 90.000
v 8.388 650.677 91.915
v 7.752 650.677 93.733
v 6.727 650.677 95.364
v 5.364 650.677 96.727
v 3.733 650.677 97.752
v 1.915 650.677 98.388
v 0.000 650.677 98.604
v -1.915 650.677 98.388
v -3.733 650.677 97.752
v -5.364 650.677 96.727
v -6.727 650.677 95.364
v -7.752 650.677 93.733
v -8.388 650.677 91.915
v -8.604 650.677 90.000
v -8.388 650.677 88.085
v -7.752 650.677 86.267
v -6.727 650.677 84.636
v -5.364 650.677 83.273
v -3.733 650.677 82.248
v -1.915 650.677 81.612
v -0.000 650.677 81.396
v 1.915 650.677 81.612
v 3.733 650.677 82.248
v 5.364 650.677 83.273
v 6.727 650.677 84.636
v 7.752 650.677 86.267
v 8.388 650.677 88.085
v 0.000 650.000 90.000
v 0.000 650.000 90.000
v 0.000 650.000 90.000
v 0.000 650.000 90.000
v 0.000 650.000 90.000
v 0.000 650.000 90.000
v 0.000 650.000 90.000
v 0.000 650.000 90.000
v -0.000 650.000 90.000
v -0.000 650.000 90.000
v -0.000 650.000 90.000
v -0.000 650.000 90.000
v -0.000 650.000 90.000
v -0.000 650.000 90.000
v -0.000 650.000 90.000
v -0.000 650.000 90.000
v -0.000 650.000 90.000
v -0.000 650.000 90.000
v -0.000 650.000 90.000
v -0.000 650.000 90.000
v -0.000 650.000 90.000
v -0.000 650.000 90.000
v 0.000 650.000 90.000
v 0.000 650.000 90.000
v 0.000 650.000 90.000
v 0.000 650.000 90.000
v 0.000 650.000 90.000
v 0.000 650.000 90.000
usemtl Gear
f 1 2 3
f 1 3 4
f 5 6 7
f 5 7 8
f 9 10 11
f 9 11 12
f 13 14 15
f 13 15 16
f 17 18 19
f 17 19 20
f 21 22 23
f 21 23 24
f 25 26 27
f 25 27 28
f 29 30 31
f 29 31 32
f 33 34 35
f 33 35 36
f 37 38 39
f 37 39 40
f 41 42 43
f 41 43 44
f 45 46 47
f 45 47 48
f 49 50 51
f 49 51 52
f 53 54 55
f 53 55 56
f 57 58 59
f 57 59 60
f 61 62 63
f 61 63 64
f 65 66 67
f 65 67 68
f 69 70 71
f 69 71 72
f 73 74 75
f 73 75 76
f 77 78 79
f 77 79 80
f 81 82 83
f 81 83 84
f 85 86 87
f 85 87 88
f 89 90 91
f 89 91 92
f 93 94 95
f 93 95 96
f 97 99 100
f 97 100 98
f 99 101 102
f 99 102 100
f 101 103 104
f 101 104 102
f 103 105 106
f 103 106 104
f 105 107 108
f 105 108 106
f 107 109 110
f 107 110 108
f 109 111 112
f 109 112 110
f 111 113 114
f 111 114 112
f 113 115 116
f 113 116 114
f 115 117 118
f 115 118 116
f 117 119 120
f 117 120 118
f 119 121 122
f 119 122 120
f 121 123 124
f 121 124 122
f 123 97 98
f 123 98 124
f 125 126 127
f 125 127 128
f 129 130 131
f 129 131 132
f 133 134 135
f 133 135 136
f 137 138 139
f 137 139 140
f 141 142 143
f 141 143 144
f 145 146 147
f 145 147 148
f 149 151 152
f 149 152 150
f 151 153 154
f 151 154 152
f 153 155 156
f 153 156 154
f 155 157 158
f 155 158 156
f 157 159 160
f 157 160 158
f 159 161 162
f 159 162 160
f 161 163 164
f 161 164 162
f 163 165 166
f 163 166 164
f 165 167 168
f 165 168 166
f 167 169 170
f 167 170 168
f 169 171 172
f 169 172 170
f 171 173 174
f 171 174 172
f 173 175 176
f 173 176 174
f 175 149 150
f 175 150 176
f 177 178 179
f 177 179 180
f 181 182 183
f 181 183 184
f 185 186 187
f 185 187 188
f 189 190 191
f 189 191 192
f 193 194 195
f 193 195 196
f 197 198 199
f 197 199 200
f 201 203 204
f 201 204 202
f 203 205 206
f 203 206 204
f 205 207 208
f 205 208 206
f 207 209 210
f 207 210 208
f 209 211 212
f 209 212 210
f 211 213 214
f 211 214 212
f 213 215 216
f 213 216 214
f 215 217 218
f 215 218 216
f 217 219 220
f 217 220 218
f 219 221 222
f 219 222 220
f 221 223 224
f 221 224 222
f 223 225 226
f 223 226 224
f 225 227 228
f 225 228 226
f 227 201 202
f 227 202 228
f 229 230 258
f 229 258 257
f 230 231 259
f 230 259 258
f 231 232 260
f 231 260 259
f 232 233 261
f 232 261 260
f 233 234 262
f 233 262 261
f 234 235 263
f 234 263 262
f 235 236 264
f 235 264 263
f 236 237 265
f 236 265 264
f 237 238 266
f 237 266 265
f 238 239 267
f 238 267 266
f 239 240 268
f 239 268 267
f 240 241 269
f 240 269 268
f 241 242 270
f 241 270 269
f 242 243 271
f 242 271 270
f 243 244 272
f 243 272 271
f 244 245 273
f 244 273 272
f 245 246 274
f 245 274 273
f 246 247 275
f 246 275 274
f 247 248 276
f 247 276 275
f 248 249 277
f 248 277 276
f 249 250 278
f 249 278 277
f 250 251 279
f 250 279 278
f 251 252 280
f 251 280 279
f 252 253 281
f 252 281 280
f 253 254 282
f 253 282 281
f 254 255 283
f 254 283 282
f 255 256 284
f 255 284 283
f 256 229 257
f 256 257 284
f 257 258 286
f 257 286 285
f 258 259 287
f 258 287 286
f 259 260 288
f 259 288 287
f 260 261 289
f 260 289 288
f 261 262 290
f 261 290 289
f 262 263 291
f 262 291 290
f 263 264 292
f 263 292 291
f 264 265 293
f 264 293 292
f 265 266 294
f 265 294 293
f 266 267 295
f 266 295 294
f 267 268 296
f 267 296 295
f 268 269 297
f 268 297 296
f 269 270 298
f 269 298 297
f 270 271 299
f 270 299 298
f 271 272 300
f 271 300 299
f 272 273 301
f 272 301 300
f 273 274 302
f 273 302 301
f 274 275 303
f 274 303 302
f 275 276 304
f 275 304 303
f 276 277 305
f 276 305 304
f 277 278 306
f 277 306 305
f 278 279 307
f 278 307 306
f 279 280 308
f 279 308 307
f 280 281 309
f 280 309 308
f 281 282 310
f 281 310 309
f 282 283 311
f 282 311 310
f 283 284 312
f 283 312 311
f 284 257 285
f 284 285 312
f 285 286 314
f 285 314 313
f 286 287 315
f 286 315 314
f 287 288 316
f 287 316 315
f 288 289 317
f 288 317 316
f 289 290 318
f 289 318 317
f 290 291 319
f 290 319 318
f 291 292 320
f 291 320 319
f 292 293 321
f 292 321 320
f 293 294 322
f 293 322 321
f 294 295 323
f 294 323 322
f 295 296 324
f 295 324 323
f 296 297 325
f 296 325 324
f 297 298 326
f 297 326 325
f 298 299 327
f 298 327 326
f 299 300 328
f 299 328 327
f 300 301 329
f 300 329 328
f 301 302 330
f 301 330 329
f 302 303 331
f 302 331 330
f 303 304 332
f 303 332 331
f 304 305 333
f 304 333 332
f 305 306 334
f 305 334 333
f 306 307 335
f 306 335 334
f 307 308 336
f 307 336 335
f 308 309 337
f 308 337 336
f 309 310 338
f 309 338 337
f 310 311 339
f 310 339 338
f 311 312 340
f 311 340 339
f 312 285 313
f 312 313 340
f 313 314 342
f 313 342 341
f 314 315 343
f 314 343 342
f 315 316 344
f 315 344 343
f 316 317 345
f 316 345 344
f 317 318 346
f 317 346 345
f 318 319 347
f 318 347 346
f 319 320 348
f 319 348 347
f 320 321 349
f 320 349 348
f 321 322 350
f 321 350 349
f 322 323 351
f 322 351 350
f 323 324 352
f 323 352 351
f 324 325 353
f 324 353 352
f 325 326 354
f 325 354 353
f 326 327 355
f 326 355 354
f 327 328 356
f 327 356 355
f 328 329 357
f 328 357 356
f 329 330 358
f 329 358 357
f 330 331 359
f 330 359 358
f 331 332 360
f 331 360 359
f 332 333 361
f 332 361 360
f 333 334 362
f 333 362 361
f 334 335 363
f 334 363 362
f 335 336 364
f 335 364 363
f 336 337 365
f 336 365 364
f 337 338 366
f 337 366 365
f 338 339 367
f 338 367 366
f 339 340 368
f 339 368 367
f 340 313 341
f 340 341 368
f 341 342 370
f 341 370 369
f 342 343 371
f 342 371 370
f 343 344 372
f 343 372 371
f 344 345 373
f 344 373 372
f 345 346 374
f 345 374 373
f 346 347 375
f 346 375 374
f 347 348 376
f 347 376 375
f 348 349 377
f 348 377 376
f 349 350 378
f 349 378 377
f 350 351 379
f 350 379 378
f 351 352 380
f 351 380 379
f 352 353 381
f 352 381 380
f 353 354 382
f 353 382 381
f 354 355 383
f 354 383 382
f 355 356 384
f 355 384 383
f 356 357 385
f 356 385 384
f 357 358 386
f 357 386 385
f 358 359 387
f 358 387 386
f 359 360 388
f 359 388 387
f 360 361 389
f 360 389 388
f 361 362 390
f 361 390 389
f 362 363 391
f 362 391 390
f 363 364 392
f 363 392 391
f 364 365 393
f 364 393 392
f 365 366 394
f 365 394 393
f 366 367 395
f 366 395 394
f 367 368 396
f 367 396 395
f 368 341 369
f 368 369 396
f 369 370 398
f 369 398 397
f 370 371 399
f 370 399 398
f 371 372 400
f 371 400 399
f 372 373 401
f 372 401 400
f 373 374 402
f 373 402 401
f 374 375 403
f 374 403 402
f 375 376 404
f 375 404 403
f 376 377 405
f 376 405 404
f 377 378 406
f 377 406 405
f 378 379 407
f 378 407 406
f 379 380 408
f 379 408 407
f 380 381 409
f 380 409 408
f 381 382 410
f 381 410 409
f 382 383 411
f 382 411 410
f 383 384 412
f 383 412 411
f 384 385 413
f 384 413 412
f 385 386 414
f 385 414 413
f 386 387 415
f 386 415 414
f 387 388 416
f 387 416 415
f 388 389 417
f 388 417 416
f 389 390 418
f 389 418 417
f 390 391 419
f 390 419 418
f 391 392 420
f 391 420 419
f 392 393 421
f 392 421 420
f 393 394 422
f 393 422 421
f 394 395 423
f 394 423 422
f 395 396 424
f 395 424 423
f 396 369 397
f 396 397 424
f 397 398 426
f 397 426 425
f 398 399 427
f 398 427 426
f 399 400 428
f 399 428 427
f 400 401 429
f 400 429 428
f 401 402 430
f 401 430 429
f 402 403 431
f 402 431 430
f 403 404 432
f 403 432 431
f 404 405 433
f 404 433 432
f 405 406 434
f 405 434 433
f 406 407 435
f 406 435 434
f 407 408 436
f 407 436 435
f 408 409 437
f 408 437 436
f 409 410 438
f 409 438 437
f 410 411 439
f 410 439 438
f 411 412 440
f 411 440 439
f 412 413 441
f 412 441 440
f 413 414 442
f 413 442 441
f 414 415 443
f 414 443 442
f 415 416 444
f 415 444 443
f 416 417 445
f 416 445 444
f 417 418 446
f 417 446 445
f 418 419 447
f 418 447 446
f 419 420 448
f 419 448 447
f 420 421 449
f 420 449 448
f 421 422 450
f 421 450 449
f 422 423 451
f 422 451 450
f 423 424 452
f 423 452 451
f 424 397 425
f 424 425 452
f 425 426 454
f 425 454 453
f 426 427 455
f 426 455 454
f 427 428 456
f 427 456 455
f 428 429 457
f 428 457 456
f 429 430 458
f 429 458 457
f 430 431 459
f 430 459 458
f 431 432 460
f 431 460 459
f 432 433 461
f 432 461 460
f 433 434 462
f 433 462 461
f 434 435 463
f 434 463 462
f 435 436 464
f 435 464 463
f 436 437 465
f 436 465 464
f 437 438 466
f 437 466 465
f 438 439 467
f 438 467 466
f 439 440 468
f 439 468 467
f 440 441 469
f 440 469 468
f 441 442 470
f 441 470 469
f 442 443 471
f 442 471 470
f 443 444 472
f 443 472 471
f 444 445 473
f 444 473 472
f 445 446 474
f 445 474 473
f 446 447 475
f 446 475 474
f 447 448 476
f 447 476 475
f 448 449 477
f 448 477 476
f 449 450 478
f 449 478 477
f 450 451 479
f 450 479 478
f 451 452 480
f 451 480 479
f 452 425 453
f 452 453 480
f 453 454 482
f 453 482 481
f 454 455 483
f 454 483 482
f 455 456 484
f 455 484 483
f 456 457 485
f 456 485 484
f 457 458 486
f 457 486 485
f 458 459 487
f 458 487 486
f 459 460 488
f 459 488 487
f 460 461 489
f 460 489 488
f 461 462 490
f 461 490 489
f 462 463 491
f 462 491 490
f 463 464 492
f 463 492 491
f 464 465 493
f 464 493 492
f 465 466 494
f 465 494 493
f 466 467 495
f 466 495 494
f 467 468 496
f 467 496 495
f 468 469 497
f 468 497 496
f 469 470 498
f 469 498 497
f 470 471 499
f 470 499 498
f 471 472 500
f 471 500 499
f 472 473 501
f 472 501 500
f 473 474 502
f 473 502 501
f 474 475 503
f 474 503 502
f 475 476 504
f 475 504 503
f 476 477 505
f 476 505 504
f 477 478 506
f 477 506 505
f 478 479 507
f 478 507 506
f 479 480 508
f 479 508 507
f 480 453 481
f 480 481 508
f 481 482 510
f 481 510 509
f 482 483 511
f 482 511 510
f 483 484 512
f 483 512 511
f 484 485 513
f 484 513 512
f 485 486 514
f 485 514 513
f 486 487 515
f 486 515 514
f 487 488 516
f 487 516 515
f 488 489 517
f 488 517 516
f 489 490 518
f 489 518 517
f 490 491 519
f 490 519 518
f 491 492 520
f 491 520 519
f 492 493 521
f 492 521 520
f 493 494 522
f 493 522 521
f 494 495 523
f 494 523 522
f 495 496 524
f 495 524 523
f 496 497 525
f 496 525 524
f 497 498 526
f 497 526 525
f 498 499 527
f 498 527 526
f 499 500 528
f 499 528 527
f 500 501 529
f 500 529 528
f 501 502 530
f 501 530 529
f 502 503 531
f 502 531 530
f 503 504 532
f 503 532 531
f 504 505 533
f 504 533 532
f 505 506 534
f 505 534 533
f 506 507 535
f 506 535 534
f 507 508 536
f 507 536 535
f 508 481 509
f 508 509 536
f 509 510 538
f 509 538 537
f 510 511 539
f 510 539 538
f 511 512 540
f 511 540 539
f 512 513 541
f 512 541 540
f 513 514 542
f 513 542 541
f 514 515 543
f 514 543 542
f 515 516 544
f 515 544 543
f 516 517 545
f 516 545 544
f 517 518 546
f 517 546 545
f 518 519 547
f 518 547 546
f 519 520 548
f 519 548 547
f 520 521 549
f 520 549 548
f 521 522 550
f 521 550 549
f 522 523 551
f 522 551 550
f 523 524 552
f 523 552 551
f 524 525 553
f 524 553 552
f 525 526 554
f 525 554 553
f 526 527 555
f 526 555 554
f 527 528 556
f 527 556 555
f 528 529 557
f 528 557 556
f 529 530 558
f 529 558 557
f 530 531 559
f 530 559 558
f 531 532 560
f 531 560 559
f 532 533 561
f 532 561 560
f 533 534 562
f 533 562 561
f 534 535 563
f 534 563 562
f 535 536 564
f 535 564 563
f 536 509 537
f 536 537 564
f 537 538 566
f 537 566 565
f 538 539 567
f 538 567 566
f 539 540 568
f 539 568 567
f 540 541 569
f 540 569 568
f 541 542 570
f 541 570 569
f 542 543 571
f 542 571 570
f 543 544 572
f 543 572 571
f 544 545 573
f 544 573 572
f 545 546 574
f 545 574 573
f 546 547 575
f 546 575 574
f 547 548 576
f 547 576 575
f 548 549 577
f 548 577 576
f 549 550 578
f 549 578 577
f 550 551 579
f 550 579 578
f 551 552 580
f 551 580 579
f 552 553 581
f 552 581 580
f 553 554 582
f 553 582 581
f 554 555 583
f 554 583 582
f 555 556 584
f 555 584 583
f 556 557 585
f 556 585 584
f 557 558 586
f 557 586 585
f 558 559 587
f 558 587 586
f 559 560 588
f 559 588 587
f 560 561 589
f 560 589 588
f 561 562 590
f 561 590 589
f 562 563 591
f 562 591 590
f 563 564 592
f 563 592 591
f 564 537 565
f 564 565 592
f 565 566 594
f 565 594 593
f 566 567 595
f 566 595 594
f 567 568 596
f 567 596 595
f 568 569 597
f 568 597 596
f 569 570 598
f 569 598 597
f 570 571 599
f 570 599 598
f 571 572 600
f 571 600 599
f 572 573 601
f 572 601 600
f 573 574 602
f 573 602 601
f 574 575 603
f 574 603 602
f 575 576 604
f 575 604 603
f 576 577 605
f 576 605 604
f 577 578 606
f 577 606 605
f 578 579 607
f 578 607 606
f 579 580 608
f 579 608 607
f 580 581 609
f 580 609 608
f 581 582 610
f 581 610 609
f 582 583 611
f 582 611 610
f 583 584 612
f 583 612 611
f 584 585 613
f 584 613 612
f 585 586 614
f 585 614 613
f 586 587 615
f 586 615 614
f 587 588 616
f 587 616 615
f 588 589 617
f 588 617 616
f 589 590 618
f 589 618 617
f 590 591 619
f 590 619 618
f 591 592 620
f 591 620 619
f 592 565 593
f 592 593 620
f 593 594 622
f 593 622 621
f 594 595 623
f 594 623 622
f 595 596 624
f 595 624 623
f 596 597 625
f 596 625 624
f 597 598 626
f 597 626 625
f 598 599 627
f 598 627 626
f 599 600 628
f 599 628 627
f 600 601 629
f 600 629 628
f 601 602 630
f 601 630 629
f 602 603 631
f 602 631 630
f 603 604 632
f 603 632 631
f 604 605 633
f 604 633 632
f 605 606 634
f 605 634 633
f 606 607 635
f 606 635 634
f 607 608 636
f 607 636 635
f 608 609 637
f 608 637 636
f 609 610 638
f 609 638 637
f 610 611 639
f 610 639 638
f 611 612 640
f 611 640 639
f 612 613 641
f 612 641 640
f 613 614 642
f 613 642 641
f 614 615 643
f 614 643 642
f 615 616 644
f 615 644 643
f 616 617 645
f 616 645 644
f 617 618 646
f 617 646 645
f 618 619 647
f 618 647 646
f 619 620 648
f 619 648 647
f 620 593 621
f 620 621 648
f 621 622 650
f 621 650 649
f 622 623 651
f 622 651 650
f 623 624 652
f 623 652 651
f 624 625 653
f 624 653 652
f 625 626 654
f 625 654 653
f 626 627 655
f 626 655 654
f 627 628 656
f 627 656 655
f 628 629 657
f 628 657 656
f 629 630 658
f 629 658 657
f 630 631 659
f 630 659 658
f 631 632 660
f 631 660 659
f 632 633 661
f 632 661 660
f 633 634 662
f 633 662 661
f 634 635 663
f 634 663 662
f 635 636 664
f 635 664 663
f 636 637 665
f 636 665 664
f 637 638 666
f 637 666 665
f 638 639 667
f 638 667 666
f 639 640 668
f 639 668 667
f 640 641 669
f 640 669 668
f 641 642 670
f 641 670 669
f 642 643 671
f 642 671 670
f 643 644 672
f 643 672 671
f 644 645 673
f 644 673 672
f 645 646 674
f 645 674 673
f 646 647 675
f 646 675 674
f 647 648 676
f 647 676 675
f 648 621 649
f 648 649 676
f 649 650 678
f 649 678 677
f 650 651 679
f 650 679 678
f 651 652 680
f 651 680 679
f 652 653 681
f 652 681 680
f 653 654 682
f 653 682 681
f 654 655 683
f 654 683 682
f 655 656 684
f 655 684 683
f 656 657 685
f 656 685 684
f 657 658 686
f 657 686 685
f 658 659 687
f 658 687 686
f 659 660 688
f 659 688 687
f 660 661 689
f 660 689 688
f 661 662 690
f 661 690 689
f 662 663 691
f 662 691 690
f 663 664 692
f 663 692 691
f 664 665 693
f 664 693 692
f 665 666 694
f 665 694 693
f 666 667 695
f 666 695 694
f 667 668 696
f 667 696 695
f 668 669 697
f 668 697 696
f 669 670 698
f 669 698 697
f 670 671 699
f 670 699 698
f 671 672 700
f 671 700 699
f 672 673 701
f 672 701 700
f 673 674 702
f 673 702 701
f 674 675 703
f 674 703 702
f 675 676 704
f 675 704 703
f 676 649 677
f 676 677 704
f 677 678 706
f 677 706 705
f 678 679 707
f 678 707 706
f 679 680 708
f 679 708 707
f 680 681 709
f 680 709 708
f 681 682 710
f 681 710 709
f 682 683 711
f 682 711 710
f 683 684 712
f 683 712 711
f 684 685 713
f 684 713 712
f 685 686 714
f 685 714 713
f 686 687 715
f 686 715 714
f 687 688 716
f 687 716 715
f 688 689 717
f 688 717 716
f 689 690 718
f 689 718 717
f 690 691 719
f 690 719 718
f 691 692 720
f 691 720 719
f 692 693 721
f 692 721 720
f 693 694 722
f 693 722 721
f 694 695 723
f 694 723 722
f 695 696 724
f 695 724 723
f 696 697 725
f 696 725 724
f 697 698 726
f 697 726 725
f 698 699 727
f 698 727 726
f 699 700 728
f 699 728 727
f 700 701 729
f 700 729 728
f 701 702 730
f 701 730 729
f 702 703 731
f 702 731 730
f 703 704 732
f 703 732 731
f 704 677 705
f 704 705 732
f 705 706 734
f 705 734 733
f 706 707 735
f 706 735 734
f 707 708 736
f 707 736 735
f 708 709 737
f 708 737 736
f 709 710 738
f 709 738 737
f 710 711 739
f 710 739 738
f 711 712 740
f 711 740 739
f 712 713 741
f 712 741 740
f 713 714 742
f 713 742 741
f 714 715 743
f 714 743 742
f 715 716 744
f 715 744 743
f 716 717 745
f 716 745 744
f 717 718 746
f 717 746 745
f 718 719 747
f 718 747 746
f 719 720 748
f 719 748 747
f 720 721 749
f 720 749 748
f 721 722 750
f 721 750 749
f 722 723 751
f 722 751 750
f 723 724 752
f 723 752 751
f 724 725 753
f 724 753 752
f 725 726 754
f 725 754 753
f 726 727 755
f 726 755 754
f 727 728 756
f 727 756 755
f 728 729 757
f 728 757 756
f 729 730 758
f 729 758 757
f 730 731 759
f 730 759 758
f 731 732 760
f 731 760 759
f 732 705 733
f 732 733 760
f 733 734 762
f 733 762 761
f 734 735 763
f 734 763 762
f 735 736 764
f 735 764 763
f 736 737 765
f 736 765 764
f 737 738 766
f 737 766 765
f 738 739 767
f 738 767 766
f 739 740 768
f 739 768 767
f 740 741 769
f 740 769 768
f 741 742 770
f 741 770 769
f 742 743 771
f 742 771 770
f 743 744 772
f 743 772 771
f 744 745 773
f 744 773 772
f 745 746 774
f 745 774 773
f 746 747 775
f 746 775 774
f 747 748 776
f 747 776 775
f 748 749 777
f 748 777 776
f 749 750 778
f 749 778 777
f 750 751 779
f 750 779 778
f 751 752 780
f 751 780 779
f 752 753 781
f 752 781 780
f 753 754 782
f 753 782 781
f 754 755 783
f 754 783 782
f 755 756 784
f 755 784 783
f 756 757 785
f 756 785 784
f 757 758 786
f 757 786 785
f 758 759 787
f 758 787 786
f 759 760 788
f 759 788 787
f 760 733 761
f 760 761 788
f 761 762 790
f 761 790 789
f 762 763 791
f 762 791 790
f 763 764 792
f 763 792 791
f 764 765 793
f 764 793 792
f 765 766 794
f 765 794 793
f 766 767 795
f 766 795 794
f 767 768 796
f 767 796 795
f 768 769 797
f 768 797 796
f 769 770 798
f 769 798 797
f 770 771 799
f 770 799 798
f 771 772 800
f 771 800 799
f 772 773 801
f 772 801 800
f 773 774 802
f 773 802 801
f 774 775 803
f 774 803 802
f 775 776 804
f 775 804 803
f 776 777 805
f 776 805 804
f 777 778 806
f 777 806 805
f 778 779 807
f 778 807 806
f 779 780 808
f 779 808 807
f 780 781 809
f 780 809 808
f 781 782 810
f 781 810 809
f 782 783 811
f 782 811 810
f 783 784 812
f 783 812 811
f 784 785 813
f 784 813 812
f 785 786 814
f 785 814 813
f 786 787 815
f 786 815 814
f 787 788 816
f 787 816 815
f 788 761 789
f 788 789 816
usemtl Face
f 817 818 846
f 817 846 845
f 818 819 847
f 818 847 846
f 819 820 848
f 819 848 847
f 820 821 849
f 820 849 848
f 821 822 850
f 821 850 849
f 822 823 851
f 822 851 850
f 823 824 852
f 823 852 851
f 824 825 853
f 824 853 852
f 825 826 854
f 825 854 853
f 826 827 855
f 826 855 854
f 827 828 856
f 827 856 855
f 828 829 857
f 828 857 856
f 829 830 858
f 829 858 857
f 830 831 859
f 830 859 858
f 831 832 860
f 831 860 859
f 832 833 861
f 832 861 860
f 833 834 862
f 833 862 861
f 834 835 863
f 834 863 862
f 835 836 864
f 835 864 863
f 836 837 865
f 836 865 864
f 837 838 866
f 837 866 865
f 838 839 867
f 838 867 866
f 839 840 868
f 839 868 867
f 840 841 869
f 840 869 868
f 841 842 870
f 841 870 869
f 842 843 871
f 842 871 870
f 843 844 872
f 843 872 871
f 844 817 845
f 844 845 872
f 845 846 874
f 845 874 873
f 846 847 875
f 846 875 874
f 847 848 876
f 847 876 875
f 848 849 877
f 848 877 876
f 849 850 878
f 849 878 877
f 850 851 879
f 850 879 878
f 851 852 880
f 851 880 879
f 852 853 881
f 852 881 880
f 853 854 882
f 853 882 881
f 854 855 883
f 854 883 882
f 855 856 884
f 855 884 883
f 856 857 885
f 856 885 884
f 857 858 886
f 857 886 885
f 858 859 887
f 858 887 886
f 859 860 888
f 859 888 887
f 860 861 889
f 860 889 888
f 861 862 890
f 861 890 889
f 862 863 891
f 862 891 890
f 863 864 892
f 863 892 891
f 864 865 893
f 864 893 892
f 865 866 894
f 865 894 893
f 866 867 895
f 866 895 894
f 867 868 896
f 867 896 895
f 868 869 897
f 868 897 896
f 869 870 898
f 869 898 897
f 870 871 899
f 870 899 898
f 871 872 900
f 871 900 899
f 872 845 873
f 872 873 900
f 873 874 902
f 873 902 901
f 874 875 903
f 874 903 902
f 875 876 904
f 875 904 903
f 876 877 905
f 876 905 904
f 877 878 906
f 877 906 905
f 878 879 907
f 878 907 906
f 879 880 908
f 879 908 907
f 880 881 909
f 880 909 908
f 881 882 910
f 881 910 909
f 882 883 911
f 882 911 910
f 883 884 912
f 883 912 911
f 884 885 913
f 884 913 912
f 885 886 914
f 885 914 913
f 886 887 915
f 886 915 914
f 887 888 916
f 887 916 915
f 888 889 917
f 888 917 916
f 889 890 918
f 889 918 917
f 890 891 919
f 890 919 918
f 891 892 920
f 891 920 919
f 892 893 921
f 892 921 920
f 893 894 922
f 893 922 921
f 894 895 923
f 894 923 922
f 895 896 924
f 895 924 923
f 896 897 925
f 896 925 924
f 897 898 926
f 897 926 925
f 898 899 927
f 898 927 926
f 899 900 928
f 899 928 927
f 900 873 901
f 900 901 928
f 901 902 930
f 901 930 929
f 902 903 931
f 902 931 930
f 903 904 932
f 903 932 931
f 904 905 933
f 904 933 932
f 905 906 934
f 905 934 933
f 906 907 935
f 906 935 934
f 907 908 936
f 907 936 935
f 908 909 937
f 908 937 936
f 909 910 938
f 909 938 937
f 910 911 939
f 910 939 938
f 911 912 940
f 911 940 939
f 912 913 941
f 912 941 940
f 913 914 942
f 913 942 941
f 914 915 943
f 914 943 942
f 915 916 944
f 915 944 943
f 916 917 945
f 916 945 944
f 917 918 946
f 917 946 945
f 918 919 947
f 918 947 946
f 919 920 948
f 919 948 947
f 920 921 949
f 920 949 948
f 921 922 950
f 921 950 949
f 922 923 951
f 922 951 950
f 923 924 952
f 923 952 951
f 924 925 953
f 924 953 952
f 925 926 954
f 925 954 953
f 926 927 955
f 926 955 954
f 927 928 956
f 927 956 955
f 928 901 929
f 928 929 956
f 929 930 958
f 929 958 957
f 930 931 959
f 930 959 958
f 931 932 960
f 931 960 959
f 932 933 961
f 932 961 960
f 933 934 962
f 933 962 961
f 934 935 963
f 934 963 962
f 935 936 964
f 935 964 963
f 936 937 965
f 936 965 964
f 937 938 966
f 937 966 965
f 938 939 967
f 938 967 966
f 939 940 968
f 939 968 967
f 940 941 969
f 940 969 968
f 941 942 970
f 941 970 969
f 942 943 971
f 942 971 970
f 943 944 972
f 943 972 971
f 944 945 973
f 944 973 972
f 945 946 974
f 945 974 973
f 946 947 975
f 946 975 974
f 947 948 976
f 947 976 975
f 948 949 977
f 948 977 976
f 949 950 978
f 949 978 977
f 950 951 979
f 950 979 978
f 951 952 980
f 951 980 979
f 952 953 981
f 952 981 980
f 953 954 982
f 953 982 981
f 954 955 983
f 954 983 982
f 955 956 984
f 955 984 983
f 956 929 957
f 956 957 984
f 957 958 986
f 957 986 985
f 958 959 987
f 958 987 986
f 959 960 988
f 959 988 987
f 960 961 989
f 960 989 988
f 961 962 990
f 961 990 989
f 962 963 991
f 962 991 990
f 963 964 992
f 963 992 991
f 964 965 993
f 964 993 992
f 965 966 994
f 965 994 993
f 966 967 995
f 966 995 994
f 967 968 996
f 967 996 995
f 968 969 997
f 968 997 996
f 969 970 998
f 969 998 997
f 970 971 999
f 970 999 998
f 971 972 1000
f 971 1000 999
f 972 973 1001
f 972 1001 1000
f 973 974 1002
f 973 1002 1001
f 974 975 1003
f 974 1003 1002
f 975 976 1004
f 975 1004 1003
f 976 977 1005
f 976 1005 1004
f 977 978 1006
f 977 1006 1005
f 978 979 1007
f 978 1007 1006
f 979 980 1008
f 979 1008 1007
f 980 981 1009
f 980 1009 1008
f 981 982 1010
f 981 1010 1009
f 982 983 1011
f 982 1011 1010
f 983 984 1012
f 983 1012 1011
f 984 957 985
f 984 985 1012
f 985 986 1014
f 985 1014 1013
f 986 987 1015
f 986 1015 1014
f 987 988 1016
f 987 1016 1015
f 988 989 1017
f 988 1017 1016
f 989 990 1018
f 989 1018 1017
f 990 991 1019
f 990 1019 1018
f 991 992 1020
f 991 1020 1019
f 992 993 1021
f 992 1021 1020
f 993 994 1022
f 993 1022 1021
f 994 995 1023
f 994 1023 1022
f 995 996 1024
f 995 1024 1023
f 996 997 1025
f 996 1025 1024
f 997 998 1026
f 997 1026 1025
f 998 999 1027
f 998 1027 1026
f 999 1000 1028
f 999 1028 1027
f 1000 1001 1029
f 1000 1029 1028
f 1001 1002 1030
f 1001 1030 1029
f 1002 1003 1031
f 1002 1031 1030
f 1003 1004 1032
f 1003 1032 1031
f 1004 1005 1033
f 1004 1033 1032
f 1005 1006 1034
f 1005 1034 1033
f 1006 1007 1035
f 1006 1035 1034
f 1007 1008 1036
f 1007 1036 1035
f 1008 1009 1037
f 1008 1037 1036
f 1009 1010 1038
f 1009 1038 1037
f 1010 1011 1039
f 1010 1039 1038
f 1011 1012 1040
f 1011 1040 1039
f 1012 985 1013
f 1012 1013 1040
f 1013 1014 1042
f 1013 1042 1041
f 1014 1015 1043
f 1014 1043 1042
f 1015 1016 1044
f 1015 1044 1043
f 1016 1017 1045
f 1016 1045 1044
f 1017 1018 1046
f 1017 1046 1045
f 1018 1019 1047
f 1018 1047 1046
f 1019 1020 1048
f 1019 1048 1047
f 1020 1021 1049
f 1020 1049 1048
f 1021 1022 1050
f 1021 1050 1049
f 1022 1023 1051
f 1022 1051 1050
f 1023 1024 1052
f 1023 1052 1051
f 1024 1025 1053
f 1024 1053 1052
f 1025 1026 1054
f 1025 1054 1053
f 1026 1027 1055
f 1026 1055 1054
f 1027 1028 1056
f 1027 1056 1055
f 1028 1029 1057
f 1028 1057 1056
f 1029 1030 1058
f 1029 1058 1057
f 1030 1031 1059
f 1030 1059 1058
f 1031 1032 1060
f 1031 1060 1059
f 1032 1033 1061
f 1032 1061 1060
f 1033 1034 1062
f 1033 1062 1061
f 1034 1035 1063
f 1034 1063 1062
f 1035 1036 1064
f 1035 1064 1063
f 1036 1037 1065
f 1036 1065 1064
f 1037 1038 1066
f 1037 1066 1065
f 1038 1039 1067
f 1038 1067 1066
f 1039 1040 1068
f 1039 1068 1067
f 1040 1013 1041
f 1040 1041 1068
f 1041 1042 1070
f 1041 1070 1069
f 1042 1043 1071
f 1042 1071 1070
f 1043 1044 1072
f 1043 1072 1071
f 1044 1045 1073
f 1044 1073 1072
f 1045 1046 1074
f 1045 1074 1073
f 1046 1047 1075
f 1046 1075 1074
f 1047 1048 1076
f 1047 1076 1075
f 1048 1049 1077
f 1048 1077 1076
f 1049 1050 1078
f 1049 1078 1077
f 1050 1051 1079
f 1050 1079 1078
f 1051 1052 1080
f 1051 1080 1079
f 1052 1053 1081
f 1052 1081 1080
f 1053 1054 1082
f 1053 1082 1081
f 1054 1055 1083
f 1054 1083 1082
f 1055 1056 1084
f 1055 1084 1083
f 1056 1057 1085
f 1056 1085 1084
f 1057 1058 1086
f 1057 1086 1085
f 1058 1059 1087
f 1058 1087 1086
f 1059 1060 1088
f 1059 1088 1087
f 1060 1061 1089
f 1060 1089 1088
f 1061 1062 1090
f 1061 1090 1089
f 1062 1063 1091
f 1062 1091 1090
f 1063 1064 1092
f 1063 1092 1091
f 1064 1065 1093
f 1064 1093 1092
f 1065 1066 1094
f 1065 1094 1093
f 1066 1067 1095
f 1066 1095 1094
f 1067 1068 1096
f 1067 1096 1095
f 1068 1041 1069
f 1068 1069 1096
f 1069 1070 1098
f 1069 1098 1097
f 1070 1071 1099
f 1070 1099 1098
f 1071 1072 1100
f 1071 1100 1099
f 1072 1073 1101
f 1072 1101 1100
f 1073 1074 1102
f 1073 1102 1101
f 1074 1075 1103
f 1074 1103 1102
f 1075 1076 1104
f 1075 1104 1103
f 1076 1077 1105
f 1076 1105 1104
f 1077 1078 1106
f 1077 1106 1105
f 1078 1079 1107
f 1078 1107 1106
f 1079 1080 1108
f 1079 1108 1107
f 1080 1081 1109
f 1080 1109 1108
f 1081 1082 1110
f 1081 1110 1109
f 1082 1083 1111
f 1082 1111 1110
f 1083 1084 1112
f 1083 1112 1111
f 1084 1085 1113
f 1084 1113 1112
f 1085 1086 1114
f 1085 1114 1113
f 1086 1087 1115
f 1086 1115 1114
f 1087 1088 1116
f 1087 1116 1115
f 1088 1089 1117
f 1088 1117 1116
f 1089 1090 1118
f 1089 1118 1117
f 1090 1091 1119
f 1090 1119 1118
f 1091 1092 1120
f 1091 1120 1119
f 1092 1093 1121
f 1092 1121 1120
f 1093 1094 1122
f 1093 1122 1121
f 1094 1095 1123
f 1094 1123 1122
f 1095 1096 1124
f 1095 1124 1123
f 1096 1069 1097
f 1096 1097 1124
f 1097 1098 1126
f 1097 1126 1125
f 1098 1099 1127
f 1098 1127 1126
f 1099 1100 1128
f 1099 1128 1127
f 1100 1101 1129
f 1100 1129 1128
f 1101 1102 1130
f 1101 1130 1129
f 1102 1103 1131
f 1102 1131 1130
f 1103 1104 1132
f 1103 1132 1131
f 1104 1105 1133
f 1104 1133 1132
f 1105 1106 1134
f 1105 1134 1133
f 1106 1107 1135
f 1106 1135 1134
f 1107 1108 1136
f 1107 1136 1135
f 1108 1109 1137
f 1108 1137 1136
f 1109 1110 1138
f 1109 1138 1137
f 1110 1111 1139
f 1110 1139 1138
f 1111 1112 1140
f 1111 1140 1139
f 1112 1113 1141
f 1112 1141 1140
f 1113 1114 1142
f 1113 1142 1141
f 1114 1115 1143
f 1114 1143 1142
f 1115 1116 1144
f 1115 1144 1143
f 1116 1117 1145
f 1116 1145 1144
f 1117 1118 1146
f 1117 1146 1145
f 1118 1119 1147
f 1118 1147 1146
f 1119 1120 1148
f 1119 1148 1147
f 1120 1121 1149
f 1120 1149 1148
f 1121 1122 1150
f 1121 1150 1149
f 1122 1123 1151
f 1122 1151 1150
f 1123 1124 1152
f 1123 1152 1151
f 1124 1097 1125
f 1124 1125 1152
f 1125 1126 1154
f 1125 1154 1153
f 1126 1127 1155
f 1126 1155 1154
f 1127 1128 1156
f 1127 1156 1155
f 1128 1129 1157
f 1128 1157 1156
f 1129 1130 1158
f 1129 1158 1157
f 1130 1131 1159
f 1130 1159 1158
f 1131 1132 1160
f 1131 1160 1159
f 1132 1133 1161
f 1132 1161 1160
f 1133 1134 1162
f 1133 1162 1161
f 1134 1135 1163
f 1134 1163 1162
f 1135 1136 1164
f 1135 1164 1163
f 1136 1137 1165
f 1136 1165 1164
f 1137 1138 1166
f 1137 1166 1165
f 1138 1139 1167
f 1138 1167 1166
f 1139 1140 1168
f 1139 1168 1167
f 1140 1141 1169
f 1140 1169 1168
f 1141 1142 1170
f 1141 1170 1169
f 1142 1143 1171
f 1142 1171 1170
f 1143 1144 1172
f 1143 1172 1171
f 1144 1145 1173
f 1144 1173 1172
f 1145 1146 1174
f 1145 1174 1173
f 1146 1147 1175
f 1146 1175 1174
f 1147 1148 1176
f 1147 1176 1175
f 1148 1149 1177
f 1148 1177 1176
f 1149 1150 1178
f 1149 1178 1177
f 1150 1151 1179
f 1150 1179 1178
f 1151 1152 1180
f 1151 1180 1179
f 1152 1125 1153
f 1152 1153 1180
f 1153 1154 1182
f 1153 1182 1181
f 1154 1155 1183
f 1154 1183 1182
f 1155 1156 1184
f 1155 1184 1183
f 1156 1157 1185
f 1156 1185 1184
f 1157 1158 1186
f 1157 1186 1185
f 1158 1159 1187
f 1158 1187 1186
f 1159 1160 1188
f 1159 1188 1187
f 1160 1161 1189
f 1160 1189 1188
f 1161 1162 1190
f 1161 1190 1189
f 1162 1163 1191
f 1162 1191 1190
f 1163 1164 1192
f 1163 1192 1191
f 1164 1165 1193
f 1164 1193 1192
f 1165 1166 1194
f 1165 1194 1193
f 1166 1167 1195
f 1166 1195 1194
f 1167 1168 1196
f 1167 1196 1195
f 1168 1169 1197
f 1168 1197 1196
f 1169 1170 1198
f 1169 1198 1197
f 1170 1171 1199
f 1170 1199 1198
f 1171 1172 1200
f 1171 1200 1199
f 1172 1173 1201
f 1172 1201 1200
f 1173 1174 1202
f 1173 1202 1201
f 1174 1175 1203
f 1174 1203 1202
f 1175 1176 1204
f 1175 1204 1203
f 1176 1177 1205
f 1176 1205 1204
f 1177 1178 1206
f 1177 1206 1205
f 1178 1179 1207
f 1178 1207 1206
f 1179 1180 1208
f 1179 1208 1207
f 1180 1153 1181
f 1180 1181 1208
f 1181 1182 1210
f 1181 1210 1209
f 1182 1183 1211
f 1182 1211 1210
f 1183 1184 1212
f 1183 1212 1211
f 1184 1185 1213
f 1184 1213 1212
f 1185 1186 1214
f 1185 1214 1213
f 1186 1187 1215
f 1186 1215 1214
f 1187 1188 1216
f 1187 1216 1215
f 1188 1189 1217
f 1188 1217 1216
f 1189 1190 1218
f 1189 1218 1217
f 1190 1191 1219
f 1190 1219 1218
f 1191 1192 1220
f 1191 1220 1219
f 1192 1193 1221
f 1192 1221 1220
f 1193 1194 1222
f 1193 1222 1221
f 1194 1195 1223
f 1194 1223 1222
f 1195 1196 1224
f 1195 1224 1223
f 1196 1197 1225
f 1196 1225 1224
f 1197 1198 1226
f 1197 1226 1225
f 1198 1199 1227
f 1198 1227 1226
f 1199 1200 1228
f 1199 1228 1227
f 1200 1201 1229
f 1200 1229 1228
f 1201 1202 1230
f 1201 1230 1229
f 1202 1203 1231
f 1202 1231 1230
f 1203 1204 1232
f 1203 1232 1231
f 1204 1205 1233
f 1204 1233 1232
f 1205 1206 1234
f 1205 1234 1233
f 1206 1207 1235
f 1206 1235 1234
f 1207 1208 1236
f 1207 1236 1235
f 1208 1181 1209
f 1208 1209 1236
f 1209 1210 1238
f 1209 1238 1237
f 1210 1211 1239
f 1210 1239 1238
f 1211 1212 1240
f 1211 1240 1239
f 1212 1213 1241
f 1212 1241 1240
f 1213 1214 1242
f 1213 1242 1241
f 1214 1215 1243
f 1214 1243 1242
f 1215 1216 1244
f 1215 1244 1243
f 1216 1217 1245
f 1216 1245 1244
f 1217 1218 1246
f 1217 1246 1245
f 1218 1219 1247
f 1218 1247 1246
f 1219 1220 1248
f 1219 1248 1247
f 1220 1221 1249
f 1220 1249 1248
f 1221 1222 1250
f 1221 1250 1249
f 1222 1223 1251
f 1222 1251 1250
f 1223 1224 1252
f 1223 1252 1251
f 1224 1225 1253
f 1224 1253 1252
f 1225 1226 1254
f 1225 1254 1253
f 1226 1227 1255
f 1226 1255 1254
f 1227 1228 1256
f 1227 1256 1255
f 1228 1229 1257
f 1228 1257 1256
f 1229 1230 1258
f 1229 1258 1257
f 1230 1231 1259
f 1230 1259 1258
f 1231 1232 1260
f 1231 1260 1259
f 1232 1233 1261
f 1232 1261 1260
f 1233 1234 1262
f 1233 1262 1261
f 1234 1235 1263
f 1234 1263 1262
f 1235 1236 1264
f 1235 1264 1263
f 1236 1209 1237
f 1236 1237 1264
f 1237 1238 1266
f 1237 1266 1265
f 1238 1239 1267
f 1238 1267 1266
f 1239 1240 1268
f 1239 1268 1267
f 1240 1241 1269
f 1240 1269 1268
f 1241 1242 1270
f 1241 1270 1269
f 1242 1243 1271
f 1242 1271 1270
f 1243 1244 1272
f 1243 1272 1271
f 1244 1245 1273
f 1244 1273 1272
f 1245 1246 1274
f 1245 1274 1273
f 1246 1247 1275
f 1246 1275 1274
f 1247 1248 1276
f 1247 1276 1275
f 1248 1249 1277
f 1248 1277 1276
f 1249 1250 1278
f 1249 1278 1277
f 1250 1251 1279
f 1250 1279 1278
f 1251 1252 1280
f 1251 1280 1279
f 1252 1253 1281
f 1252 1281 1280
f 1253 1254 1282
f 1253 1282 1281
f 1254 1255 1283
f 1254 1283 1282
f 1255 1256 1284
f 1255 1284 1283
f 1256 1257 1285
f 1256 1285 1284
f 1257 1258 1286
f 1257 1286 1285
f 1258 1259 1287
f 1258 1287 1286
f 1259 1260 1288
f 1259 1288 1287
f 1260 1261 1289
f 1260 1289 1288
f 1261 1262 1290
f 1261 1290 1289
f 1262 1263 1291
f 1262 1291 1290
f 1263 1264 1292
f 1263 1292 1291
f 1264 1237 1265
f 1264 1265 1292
f 1265 1266 1294
f 1265 1294 1293
f 1266 1267 1295
f 1266 1295 1294
f 1267 1268 1296
f 1267 1296 1295
f 1268 1269 1297
f 1268 1297 1296
f 1269 1270 1298
f 1269 1298 1297
f 1270 1271 1299
f 1270 1299 1298
f 1271 1272 1300
f 1271 1300 1299
f 1272 1273 1301
f 1272 1301 1300
f 1273 1274 1302
f 1273 1302 1301
f 1274 1275 1303
f 1274 1303 1302
f 1275 1276 1304
f 1275 1304 1303
f 1276 1277 1305
f 1276 1305 1304
f 1277 1278 1306
f 1277 1306 1305
f 1278 1279 1307
f 1278 1307 1306
f 1279 1280 1308
f 1279 1308 1307
f 1280 1281 1309
f 1280 1309 1308
f 1281 1282 1310
f 1281 1310 1309
f 1282 1283 1311
f 1282 1311 1310
f 1283 1284 1312
f 1283 1312 1311
f 1284 1285 1313
f 1284 1313 1312
f 1285 1286 1314
f 1285 1314 1313
f 1286 1287 1315
f 1286 1315 1314
f 1287 1288 1316
f 1287 1316 1315
f 1288 1289 1317
f 1288 1317 1316
f 1289 1290 1318
f 1289 1318 1317
f 1290 1291 1319
f 1290 1319 1318
f 1291 1292 1320
f 1291 1320 1319
f 1292 1265 1293
f 1292 1293 1320
f 1293 1294 1322
f 1293 1322 1321
f 1294 1295 1323
f 1294 1323 1322
f 1295 1296 1324
f 1295 1324 1323
f 1296 1297 1325
f 1296 1325 1324
f 1297 1298 1326
f 1297 1326 1325
f 1298 1299 1327
f 1298 1327 1326
f 1299 1300 1328
f 1299 1328 1327
f 1300 1301 1329
f 1300 1329 1328
f 1301 1302 1330
f 1301 1330 1329
f 1302 1303 1331
f 1302 1331 1330
f 1303 1304 1332
f 1303 1332 1331
f 1304 1305 1333
f 1304 1333 1332
f 1305 1306 1334
f 1305 1334 1333
f 1306 1307 1335
f 1306 1335 1334
f 1307 1308 1336
f 1307 1336 1335
f 1308 1309 1337
f 1308 1337 1336
f 1309 1310 1338
f 1309 1338 1337
f 1310 1311 1339
f 1310 1339 1338
f 1311 1312 1340
f 1311 1340 1339
f 1312 1313 1341
f 1312 1341 1340
f 1313 1314 1342
f 1313 1342 1341
f 1314 1315 1343
f 1314 1343 1342
f 1315 1316 1344
f 1315 1344 1343
f 1316 1317 1345
f 1316 1345 1344
f 1317 1318 1346
f 1317 1346 1345
f 1318 1319 1347
f 1318 1347 1346
f 1319 1320 1348
f 1319 1348 1347
f 1320 1293 1321
f 1320 1321 1348
f 1321 1322 1350
f 1321 1350 1349
f 1322 1323 1351
f 1322 1351 1350
f 1323 1324 1352
f 1323 1352 1351
f 1324 1325 1353
f 1324 1353 1352
f 1325 1326 1354
f 1325 1354 1353
f 1326 1327 1355
f 1326 1355 1354
f 1327 1328 1356
f 1327 1356 1355
f 1328 1329 1357
f 1328 1357 1356
f 1329 1330 1358
f 1329 1358 1357
f 1330 1331 1359
f 1330 1359 1358
f 1331 1332 1360
f 1331 1360 1359
f 1332 1333 1361
f 1332 1361 1360
f 1333 1334 1362
f 1333 1362 1361
f 1334 1335 1363
f 1334 1363 1362
f 1335 1336 1364
f 1335 1364 1363
f 1336 1337 1365
f 1336 1365 1364
f 1337 1338 1366
f 1337 1366 1365
f 1338 1339 1367
f 1338 1367 1366
f 1339 1340 1368
f 1339 1368 1367
f 1340 1341 1369
f 1340 1369 1368
f 1341 1342 1370
f 1341 1370 1369
f 1342 1343 1371
f 1342 1371 1370
f 1343 1344 1372
f 1343 1372 1371
f 1344 1345 1373
f 1344 1373 1372
f 1345 1346 1374
f 1345 1374 1373
f 1346 1347 1375
f 1346 1375 1374
f 1347 1348 1376
f 1347 1376 1375
f 1348 1321 1349
f 1348 1349 1376
f 1349 1350 1378
f 1349 1378 1377
f 1350 1351 1379
f 1350 1379 1378
f 1351 1352 1380
f 1351 1380 1379
f 1352 1353 1381
f 1352 1381 1380
f 1353 1354 1382
f 1353 1382 1381
f 1354 1355 1383
f 1354 1383 1382
f 1355 1356 1384
f 1355 1384 1383
f 1356 1357 1385
f 1356 1385 1384
f 1357 1358 1386
f 1357 1386 1385
f 1358 1359 1387
f 1358 1387 1386
f 1359 1360 1388
f 1359 1388 1387
f 1360 1361 1389
f 1360 1389 1388
f 1361 1362 1390
f 1361 1390 1389
f 1362 1363 1391
f 1362 1391 1390
f 1363 1364 1392
f 1363 1392 1391
f 1364 1365 1393
f 1364 1393 1392
f 1365 1366 1394
f 1365 1394 1393
f 1366 1367 1395
f 1366 1395 1394
f 1367 1368 1396
f 1367 1396 1395
f 1368 1369 1397
f 1368 1397 1396
f 1369 1370 1398
f 1369 1398 1397
f 1370 1371 1399
f 1370 1399 1398
f 1371 1372 1400
f 1371 1400 1399
f 1372 1373 1401
f 1372 1401 1400
f 1373 1374 1402
f 1373 1402 1401
f 1374 1375 1403
f 1374 1403 1402
f 1375 1376 1404
f 1375 1404 1403
f 1376 1349 1377
f 1376 1377 1404
