# Optional numbered reference grid overlay - NOT an IFF marking.
# 10 columns x 20 rows of 2000 mm tiles.
# Aligns with the rink boundary + centre line; crease/goal-line edges fall mid-tile (see header).
# Number labels are added in index.html.
mtllib grid_tiles.mtl
v -10012.500 2.500 0.000
v -9987.500 2.500 0.000
v -9987.500 2.500 40000.000
v -10012.500 2.500 40000.000
v -10012.500 2.500 0.000
v -9987.500 2.500 0.000
v -9987.500 2.500 40000.000
v -10012.500 2.500 40000.000
v -8012.500 2.500 0.000
v -7987.500 2.500 0.000
v -7987.500 2.500 40000.000
v -8012.500 2.500 40000.000
v -8012.500 2.500 0.000
v -7987.500 2.500 0.000
v -7987.500 2.500 40000.000
v -8012.500 2.500 40000.000
v -6012.500 2.500 0.000
v -5987.500 2.500 0.000
v -5987.500 2.500 40000.000
v -6012.500 2.500 40000.000
v -6012.500 2.500 0.000
v -5987.500 2.500 0.000
v -5987.500 2.500 40000.000
v -6012.500 2.500 40000.000
v -4012.500 2.500 0.000
v -3987.500 2.500 0.000
v -3987.500 2.500 40000.000
v -4012.500 2.500 40000.000
v -4012.500 2.500 0.000
v -3987.500 2.500 0.000
v -3987.500 2.500 40000.000
v -4012.500 2.500 40000.000
v -2012.500 2.500 0.000
v -1987.500 2.500 0.000
v -1987.500 2.500 40000.000
v -2012.500 2.500 40000.000
v -2012.500 2.500 0.000
v -1987.500 2.500 0.000
v -1987.500 2.500 40000.000
v -2012.500 2.500 40000.000
v -12.500 2.500 0.000
v 12.500 2.500 0.000
v 12.500 2.500 40000.000
v -12.500 2.500 40000.000
v -12.500 2.500 0.000
v 12.500 2.500 0.000
v 12.500 2.500 40000.000
v -12.500 2.500 40000.000
v 1987.500 2.500 0.000
v 2012.500 2.500 0.000
v 2012.500 2.500 40000.000
v 1987.500 2.500 40000.000
v 1987.500 2.500 0.000
v 2012.500 2.500 0.000
v 2012.500 2.500 40000.000
v 1987.500 2.500 40000.000
v 3987.500 2.500 0.000
v 4012.500 2.500 0.000
v 4012.500 2.500 40000.000
v 3987.500 2.500 40000.000
v 3987.500 2.500 0.000
v 4012.500 2.500 0.000
v 4012.500 2.500 40000.000
v 3987.500 2.500 40000.000
v 5987.500 2.500 0.000
v 6012.500 2.500 0.000
v 6012.500 2.500 40000.000
v 5987.500 2.500 40000.000
v 5987.500 2.500 0.000
v 6012.500 2.500 0.000
v 6012.500 2.500 40000.000
v 5987.500 2.500 40000.000
v 7987.500 2.500 0.000
v 8012.500 2.500 0.000
v 8012.500 2.500 40000.000
v 7987.500 2.500 40000.000
v 7987.500 2.500 0.000
v 8012.500 2.500 0.000
v 8012.500 2.500 40000.000
v 7987.500 2.500 40000.000
v 9987.500 2.500 0.000
v 10012.500 2.500 0.000
v 10012.500 2.500 40000.000
v 9987.500 2.500 40000.000
v 9987.500 2.500 0.000
v 10012.500 2.500 0.000
v 10012.500 2.500 40000.000
v 9987.500 2.500 40000.000
v -10000.000 2.500 -12.500
v 10000.000 2.500 -12.500
v 10000.000 2.500 12.500
v -10000.000 2.500 12.500
v -10000.000 2.500 -12.500
v 10000.000 2.500 -12.500
v 10000.000 2.500 12.500
v -10000.000 2.500 12.500
v -10000.000 2.500 1987.500
v 10000.000 2.500 1987.500
v 10000.000 2.500 2012.500
v -10000.000 2.500 2012.500
v -10000.000 2.500 1987.500
v 10000.000 2.500 1987.500
v 10000.000 2.500 2012.500
v -10000.000 2.500 2012.500
v -10000.000 2.500 3987.500
v 10000.000 2.500 3987.500
v 10000.000 2.500 4012.500
v -10000.000 2.500 4012.500
v -10000.000 2.500 3987.500
v 10000.000 2.500 3987.500
v 10000.000 2.500 4012.500
v -10000.000 2.500 4012.500
v -10000.000 2.500 5987.500
v 10000.000 2.500 5987.500
v 10000.000 2.500 6012.500
v -10000.000 2.500 6012.500
v -10000.000 2.500 5987.500
v 10000.000 2.500 5987.500
v 10000.000 2.500 6012.500
v -10000.000 2.500 6012.500
v -10000.000 2.500 7987.500
v 10000.000 2.500 7987.500
v 10000.000 2.500 8012.500
v -10000.000 2.500 8012.500
v -10000.000 2.500 7987.500
v 10000.000 2.500 7987.500
v 10000.000 2.500 8012.500
v -10000.000 2.500 8012.500
v -10000.000 2.500 9987.500
v 10000.000 2.500 9987.500
v 10000.000 2.500 10012.500
v -10000.000 2.500 10012.500
v -10000.000 2.500 9987.500
v 10000.000 2.500 9987.500
v 10000.000 2.500 10012.500
v -10000.000 2.500 10012.500
v -10000.000 2.500 11987.500
v 10000.000 2.500 11987.500
v 10000.000 2.500 12012.500
v -10000.000 2.500 12012.500
v -10000.000 2.500 11987.500
v 10000.000 2.500 11987.500
v 10000.000 2.500 12012.500
v -10000.000 2.500 12012.500
v -10000.000 2.500 13987.500
v 10000.000 2.500 13987.500
v 10000.000 2.500 14012.500
v -10000.000 2.500 14012.500
v -10000.000 2.500 13987.500
v 10000.000 2.500 13987.500
v 10000.000 2.500 14012.500
v -10000.000 2.500 14012.500
v -10000.000 2.500 15987.500
v 10000.000 2.500 15987.500
v 10000.000 2.500 16012.500
v -10000.000 2.500 16012.500
v -10000.000 2.500 15987.500
v 10000.000 2.500 15987.500
v 10000.000 2.500 16012.500
v -10000.000 2.500 16012.500
v -10000.000 2.500 17987.500
v 10000.000 2.500 17987.500
v 10000.000 2.500 18012.500
v -10000.000 2.500 18012.500
v -10000.000 2.500 17987.500
v 10000.000 2.500 17987.500
v 10000.000 2.500 18012.500
v -10000.000 2.500 18012.500
v -10000.000 2.500 19987.500
v 10000.000 2.500 19987.500
v 10000.000 2.500 20012.500
v -10000.000 2.500 20012.500
v -10000.000 2.500 19987.500
v 10000.000 2.500 19987.500
v 10000.000 2.500 20012.500
v -10000.000 2.500 20012.500
v -10000.000 2.500 21987.500
v 10000.000 2.500 21987.500
v 10000.000 2.500 22012.500
v -10000.000 2.500 22012.500
v -10000.000 2.500 21987.500
v 10000.000 2.500 21987.500
v 10000.000 2.500 22012.500
v -10000.000 2.500 22012.500
v -10000.000 2.500 23987.500
v 10000.000 2.500 23987.500
v 10000.000 2.500 24012.500
v -10000.000 2.500 24012.500
v -10000.000 2.500 23987.500
v 10000.000 2.500 23987.500
v 10000.000 2.500 24012.500
v -10000.000 2.500 24012.500
v -10000.000 2.500 25987.500
v 10000.000 2.500 25987.500
v 10000.000 2.500 26012.500
v -10000.000 2.500 26012.500
v -10000.000 2.500 25987.500
v 10000.000 2.500 25987.500
v 10000.000 2.500 26012.500
v -10000.000 2.500 26012.500
v -10000.000 2.500 27987.500
v 10000.000 2.500 27987.500
v 10000.000 2.500 28012.500
v -10000.000 2.500 28012.500
v -10000.000 2.500 27987.500
v 10000.000 2.500 27987.500
v 10000.000 2.500 28012.500
v -10000.000 2.500 28012.500
v -10000.000 2.500 29987.500
v 10000.000 2.500 29987.500
v 10000.000 2.500 30012.500
v -10000.000 2.500 30012.500
v -10000.000 2.500 29987.500
v 10000.000 2.500 29987.500
v 10000.000 2.500 30012.500
v -10000.000 2.500 30012.500
v -10000.000 2.500 31987.500
v 10000.000 2.500 31987.500
v 10000.000 2.500 32012.500
v -10000.000 2.500 32012.500
v -10000.000 2.500 31987.500
v 10000.000 2.500 31987.500
v 10000.000 2.500 32012.500
v -10000.000 2.500 32012.500
v -10000.000 2.500 33987.500
v 10000.000 2.500 33987.500
v 10000.000 2.500 34012.500
v -10000.000 2.500 34012.500
v -10000.000 2.500 33987.500
v 10000.000 2.500 33987.500
v 10000.000 2.500 34012.500
v -10000.000 2.500 34012.500
v -10000.000 2.500 35987.500
v 10000.000 2.500 35987.500
v 10000.000 2.500 36012.500
v -10000.000 2.500 36012.500
v -10000.000 2.500 35987.500
v 10000.000 2.500 35987.500
v 10000.000 2.500 36012.500
v -10000.000 2.500 36012.500
v -10000.000 2.500 37987.500
v 10000.000 2.500 37987.500
v 10000.000 2.500 38012.500
v -10000.000 2.500 38012.500
v -10000.000 2.500 37987.500
v 10000.000 2.500 37987.500
v 10000.000 2.500 38012.500
v -10000.000 2.500 38012.500
v -10000.000 2.500 39987.500
v 10000.000 2.500 39987.500
v 10000.000 2.500 40012.500
v -10000.000 2.500 40012.500
v -10000.000 2.500 39987.500
v 10000.000 2.500 39987.500
v 10000.000 2.500 40012.500
v -10000.000 2.500 40012.500
usemtl GridLine
f 1 2 3
f 1 3 4
f 5 7 6
f 5 8 7
f 9 10 11
f 9 11 12
f 13 15 14
f 13 16 15
f 17 18 19
f 17 19 20
f 21 23 22
f 21 24 23
f 25 26 27
f 25 27 28
f 29 31 30
f 29 32 31
f 33 34 35
f 33 35 36
f 37 39 38
f 37 40 39
f 41 42 43
f 41 43 44
f 45 47 46
f 45 48 47
f 49 50 51
f 49 51 52
f 53 55 54
f 53 56 55
f 57 58 59
f 57 59 60
f 61 63 62
f 61 64 63
f 65 66 67
f 65 67 68
f 69 71 70
f 69 72 71
f 73 74 75
f 73 75 76
f 77 79 78
f 77 80 79
f 81 82 83
f 81 83 84
f 85 87 86
f 85 88 87
f 89 90 91
f 89 91 92
f 93 95 94
f 93 96 95
f 97 98 99
f 97 99 100
f 101 103 102
f 101 104 103
f 105 106 107
f 105 107 108
f 109 111 110
f 109 112 111
f 113 114 115
f 113 115 116
f 117 119 118
f 117 120 119
f 121 122 123
f 121 123 124
f 125 127 126
f 125 128 127
f 129 130 131
f 129 131 132
f 133 135 134
f 133 136 135
f 137 138 139
f 137 139 140
f 141 143 142
f 141 144 143
f 145 146 147
f 145 147 148
f 149 151 150
f 149 152 151
f 153 154 155
f 153 155 156
f 157 159 158
f 157 160 159
f 161 162 163
f 161 163 164
f 165 167 166
f 165 168 167
f 169 170 171
f 169 171 172
f 173 175 174
f 173 176 175
f 177 178 179
f 177 179 180
f 181 183 182
f 181 184 183
f 185 186 187
f 185 187 188
f 189 191 190
f 189 192 191
f 193 194 195
f 193 195 196
f 197 199 198
f 197 200 199
f 201 202 203
f 201 203 204
f 205 207 206
f 205 208 207
f 209 210 211
f 209 211 212
f 213 215 214
f 213 216 215
f 217 218 219
f 217 219 220
f 221 223 222
f 221 224 223
f 225 226 227
f 225 227 228
f 229 231 230
f 229 232 231
f 233 234 235
f 233 235 236
f 237 239 238
f 237 240 239
f 241 242 243
f 241 243 244
f 245 247 246
f 245 248 247
f 249 250 251
f 249 251 252
f 253 255 254
f 253 256 255
