# Authoring-tool player chip - not an IFF object.
# 200 mm diameter x 20 mm tall disc.
# Team colour is applied per instance in JS; the number label is a canvas-texture sprite child.
mtllib player_chip.mtl
v 0.000 20.000 0.000
v 0.000 0.000 0.000
v 100.000 20.000 0.000
v 100.000 0.000 0.000
v 99.144 20.000 13.053
v 99.144 0.000 13.053
v 96.593 20.000 25.882
v 96.593 0.000 25.882
v 92.388 20.000 38.268
v 92.388 0.000 38.268
v 86.603 20.000 50.000
v 86.603 0.000 50.000
v 79.335 20.000 60.876
v 79.335 0.000 60.876
v 70.711 20.000 70.711
v 70.711 0.000 70.711
v 60.876 20.000 79.335
v 60.876 0.000 79.335
v 50.000 20.000 86.603
v 50.000 0.000 86.603
v 38.268 20.000 92.388
v 38.268 0.000 92.388
v 25.882 20.000 96.593
v 25.882 0.000 96.593
v 13.053 20.000 99.144
v 13.053 0.000 99.144
v 0.000 20.000 100.000
v 0.000 0.000 100.000
v -13.053 20.000 99.144
v -13.053 0.000 99.144
v -25.882 20.000 96.593
v -25.882 0.000 96.593
v -38.268 20.000 92.388
v -38.268 0.000 92.388
v -50.000 20.000 86.603
v -50.000 0.000 86.603
v -60.876 20.000 79.335
v -60.876 0.000 79.335
v -70.711 20.000 70.711
v -70.711 0.000 70.711
v -79.335 20.000 60.876
v -79.335 0.000 60.876
v -86.603 20.000 50.000
v -86.603 0.000 50.000
v -92.388 20.000 38.268
v -92.388 0.000 38.268
v -96.593 20.000 25.882
v -96.593 0.000 25.882
v -99.144 20.000 13.053
v -99.144 0.000 13.053
v -100.000 20.000 0.000
v -100.000 0.000 0.000
v -99.144 20.000 -13.053
v -99.144 0.000 -13.053
v -96.593 20.000 -25.882
v -96.593 0.000 -25.882
v -92.388 20.000 -38.268
v -92.388 0.000 -38.268
v -86.603 20.000 -50.000
v -86.603 0.000 -50.000
v -79.335 20.000 -60.876
v -79.335 0.000 -60.876
v -70.711 20.000 -70.711
v -70.711 0.000 -70.711
v -60.876 20.000 -79.335
v -60.876 0.000 -79.335
v -50.000 20.000 -86.603
v -50.000 0.000 -86.603
v -38.268 20.000 -92.388
v -38.268 0.000 -92.388
v -25.882 20.000 -96.593
v -25.882 0.000 -96.593
v -13.053 20.000 -99.144
v -13.053 0.000 -99.144
v -0.000 20.000 -100.000
v -0.000 0.000 -100.000
v 13.053 20.000 -99.144
v 13.053 0.000 -99.144
v 25.882 20.000 -96.593
v 25.882 0.000 -96.593
v 38.268 20.000 -92.388
v 38.268 0.000 -92.388
v 50.000 20.000 -86.603
v 50.000 0.000 -86.603
v 60.876 20.000 -79.335
v 60.876 0.000 -79.335
v 70.711 20.000 -70.711
v 70.711 0.000 -70.711
v 79.335 20.000 -60.876
v 79.335 0.000 -60.876
v 86.603 20.000 -50.000
v 86.603 0.000 -50.000
v 92.388 20.000 -38.268
v 92.388 0.000 -38.268
v 96.593 20.000 -25.882
v 96.593 0.000 -25.882
v 99.144 20.000 -13.053
v 99.144 0.000 -13.053
usemtl Chip
f 1 5 3
f 2 4 6
f 3 5 6
f 3 6 4
f 1 7 5
f 2 6 8
f 5 7 8
f 5 8 6
f 1 9 7
f 2 8 10
f 7 9 10
f 7 10 8
f 1 11 9
f 2 10 12
f 9 11 12
f 9 12 10
f 1 13 11
f 2 12 14
f 11 13 14
f 11 14 12
f 1 15 13
f 2 14 16
f 13 15 16
f 13 16 14
f 1 17 15
f 2 16 18
f 15 17 18
f 15 18 16
f 1 19 17
f 2 18 20
f 17 19 20
f 17 20 18
f 1 21 19
f 2 20 22
f 19 21 22
f 19 22 20
f 1 23 21
f 2 22 24
f 21 23 24
f 21 24 22
f 1 25 23
f 2 24 26
f 23 25 26
f 23 26 24
f 1 27 25
f 2 26 28
f 25 27 28
f 25 28 26
f 1 29 27
f 2 28 30
f 27 29 30
f 27 30 28
f 1 31 29
f 2 30 32
f 29 31 32
f 29 32 30
f 1 33 31
f 2 32 34
f 31 33 34
f 31 34 32
f 1 35 33
f 2 34 36
f 33 35 36
f 33 36 34
f 1 37 35
f 2 36 38
f 35 37 38
f 35 38 36
f 1 39 37
f 2 38 40
f 37 39 40
f 37 40 38
f 1 41 39
f 2 40 42
f 39 41 42
f 39 42 40
f 1 43 41
f 2 42 44
f 41 43 44
f 41 44 42
f 1 45 43
f 2 44 46
f 43 45 46
f 43 46 44
f 1 47 45
f 2 46 48
f 45 47 48
f 45 48 46
f 1 49 47
f 2 48 50
f 47 49 50
f 47 50 48
f 1 51 49
f 2 50 52
f 49 51 52
f 49 52 50
f 1 53 51
f 2 52 54
f 51 53 54
f 51 54 52
f 1 55 53
f 2 54 56
f 53 55 56
f 53 56 54
f 1 57 55
f 2 56 58
f 55 57 58
f 55 58 56
f 1 59 57
f 2 58 60
f 57 59 60
f 57 60 58
f 1 61 59
f 2 60 62
f 59 61 62
f 59 62 60
f 1 63 61
f 2 62 64
f 61 63 64
f 61 64 62
f 1 65 63
f 2 64 66
f 63 65 66
f 63 66 64
f 1 67 65
f 2 66 68
f 65 67 68
f 65 68 66
f 1 69 67
f 2 68 70
f 67 69 70
f 67 70 68
f 1 71 69
f 2 70 72
f 69 71 72
f 69 72 70
f 1 73 71
f 2 72 74
f 71 73 74
f 71 74 72
f 1 75 73
f 2 74 76
f 73 75 76
f 73 76 74
f 1 77 75
f 2 76 78
f 75 77 78
f 75 78 76
f 1 79 77
f 2 78 80
f 77 79 80
f 77 80 78
f 1 81 79
f 2 80 82
f 79 81 82
f 79 82 80
f 1 83 81
f 2 82 84
f 81 83 84
f 81 84 82
f 1 85 83
f 2 84 86
f 83 85 86
f 83 86 84
f 1 87 85
f 2 86 88
f 85 87 88
f 85 88 86
f 1 89 87
f 2 88 90
f 87 89 90
f 87 90 88
f 1 91 89
f 2 90 92
f 89 91 92
f 89 92 90
f 1 93 91
f 2 92 94
f 91 93 94
f 91 94 92
f 1 95 93
f 2 94 96
f 93 95 96
f 93 96 94
f 1 97 95
f 2 96 98
f 95 97 98
f 95 98 96
f 1 3 97
f 2 98 4
f 97 3 4
f 97 4 98
