# Swiss Way tactical zones (naher/hoher Slot, Tasche, Playmaker) - NOT an IFF spec.
# Proportional estimate from the swissunihockey.ch coaching lexicon schematic.
# units: millimetres, same coordinate system as rink.obj
mtllib tactical_zones.mtl
v -10000.000 1.000 20030.000
v -9600.000 1.000 20030.000
v -9600.000 1.000 19970.000
v -10000.000 1.000 19970.000
v -10000.000 1.000 20030.000
v -9600.000 1.000 20030.000
v -9600.000 1.000 19970.000
v -10000.000 1.000 19970.000
v -9300.000 1.000 20030.000
v -8900.000 1.000 20030.000
v -8900.000 1.000 19970.000
v -9300.000 1.000 19970.000
v -9300.000 1.000 20030.000
v -8900.000 1.000 20030.000
v -8900.000 1.000 19970.000
v -9300.000 1.000 19970.000
v -8600.000 1.000 20030.000
v -8200.000 1.000 20030.000
v -8200.000 1.000 19970.000
v -8600.000 1.000 19970.000
v -8600.000 1.000 20030.000
v -8200.000 1.000 20030.000
v -8200.000 1.000 19970.000
v -8600.000 1.000 19970.000
v -7900.000 1.000 20030.000
v -7500.000 1.000 20030.000
v -7500.000 1.000 19970.000
v -7900.000 1.000 19970.000
v -7900.000 1.000 20030.000
v -7500.000 1.000 20030.000
v -7500.000 1.000 19970.000
v -7900.000 1.000 19970.000
v -7200.000 1.000 20030.000
v -6800.000 1.000 20030.000
v -6800.000 1.000 19970.000
v -7200.000 1.000 19970.000
v -7200.000 1.000 20030.000
v -6800.000 1.000 20030.000
v -6800.000 1.000 19970.000
v -7200.000 1.000 19970.000
v -6500.000 1.000 20030.000
v -6100.000 1.000 20030.000
v -6100.000 1.000 19970.000
v -6500.000 1.000 19970.000
v -6500.000 1.000 20030.000
v -6100.000 1.000 20030.000
v -6100.000 1.000 19970.000
v -6500.000 1.000 19970.000
v -5800.000 1.000 20030.000
v -5400.000 1.000 20030.000
v -5400.000 1.000 19970.000
v -5800.000 1.000 19970.000
v -5800.000 1.000 20030.000
v -5400.000 1.000 20030.000
v -5400.000 1.000 19970.000
v -5800.000 1.000 19970.000
v -5100.000 1.000 20030.000
v -4700.000 1.000 20030.000
v -4700.000 1.000 19970.000
v -5100.000 1.000 19970.000
v -5100.000 1.000 20030.000
v -4700.000 1.000 20030.000
v -4700.000 1.000 19970.000
v -5100.000 1.000 19970.000
v -4400.000 1.000 20030.000
v -4000.000 1.000 20030.000
v -4000.000 1.000 19970.000
v -4400.000 1.000 19970.000
v -4400.000 1.000 20030.000
v -4000.000 1.000 20030.000
v -4000.000 1.000 19970.000
v -4400.000 1.000 19970.000
v -3700.000 1.000 20030.000
v -3300.000 1.000 20030.000
v -3300.000 1.000 19970.000
v -3700.000 1.000 19970.000
v -3700.000 1.000 20030.000
v -3300.000 1.000 20030.000
v -3300.000 1.000 19970.000
v -3700.000 1.000 19970.000
v -3000.000 1.000 20030.000
v -2600.000 1.000 20030.000
v -2600.000 1.000 19970.000
v -3000.000 1.000 19970.000
v -3000.000 1.000 20030.000
v -2600.000 1.000 20030.000
v -2600.000 1.000 19970.000
v -3000.000 1.000 19970.000
v -2300.000 1.000 20030.000
v -1900.000 1.000 20030.000
v -1900.000 1.000 19970.000
v -2300.000 1.000 19970.000
v -2300.000 1.000 20030.000
v -1900.000 1.000 20030.000
v -1900.000 1.000 19970.000
v -2300.000 1.000 19970.000
v -1600.000 1.000 20030.000
v -1200.000 1.000 20030.000
v -1200.000 1.000 19970.000
v -1600.000 1.000 19970.000
v -1600.000 1.000 20030.000
v -1200.000 1.000 20030.000
v -1200.000 1.000 19970.000
v -1600.000 1.000 19970.000
v -900.000 1.000 20030.000
v -500.000 1.000 20030.000
v -500.000 1.000 19970.000
v -900.000 1.000 19970.000
v -900.000 1.000 20030.000
v -500.000 1.000 20030.000
v -500.000 1.000 19970.000
v -900.000 1.000 19970.000
v -200.000 1.000 20030.000
v 200.000 1.000 20030.000
v 200.000 1.000 19970.000
v -200.000 1.000 19970.000
v -200.000 1.000 20030.000
v 200.000 1.000 20030.000
v 200.000 1.000 19970.000
v -200.000 1.000 19970.000
v 500.000 1.000 20030.000
v 900.000 1.000 20030.000
v 900.000 1.000 19970.000
v 500.000 1.000 19970.000
v 500.000 1.000 20030.000
v 900.000 1.000 20030.000
v 900.000 1.000 19970.000
v 500.000 1.000 19970.000
v 1200.000 1.000 20030.000
v 1600.000 1.000 20030.000
v 1600.000 1.000 19970.000
v 1200.000 1.000 19970.000
v 1200.000 1.000 20030.000
v 1600.000 1.000 20030.000
v 1600.000 1.000 19970.000
v 1200.000 1.000 19970.000
v 1900.000 1.000 20030.000
v 2300.000 1.000 20030.000
v 2300.000 1.000 19970.000
v 1900.000 1.000 19970.000
v 1900.000 1.000 20030.000
v 2300.000 1.000 20030.000
v 2300.000 1.000 19970.000
v 1900.000 1.000 19970.000
v 2600.000 1.000 20030.000
v 3000.000 1.000 20030.000
v 3000.000 1.000 19970.000
v 2600.000 1.000 19970.000
v 2600.000 1.000 20030.000
v 3000.000 1.000 20030.000
v 3000.000 1.000 19970.000
v 2600.000 1.000 19970.000
v 3300.000 1.000 20030.000
v 3700.000 1.000 20030.000
v 3700.000 1.000 19970.000
v 3300.000 1.000 19970.000
v 3300.000 1.000 20030.000
v 3700.000 1.000 20030.000
v 3700.000 1.000 19970.000
v 3300.000 1.000 19970.000
v 4000.000 1.000 20030.000
v 4400.000 1.000 20030.000
v 4400.000 1.000 19970.000
v 4000.000 1.000 19970.000
v 4000.000 1.000 20030.000
v 4400.000 1.000 20030.000
v 4400.000 1.000 19970.000
v 4000.000 1.000 19970.000
v 4700.000 1.000 20030.000
v 5100.000 1.000 20030.000
v 5100.000 1.000 19970.000
v 4700.000 1.000 19970.000
v 4700.000 1.000 20030.000
v 5100.000 1.000 20030.000
v 5100.000 1.000 19970.000
v 4700.000 1.000 19970.000
v 5400.000 1.000 20030.000
v 5800.000 1.000 20030.000
v 5800.000 1.000 19970.000
v 5400.000 1.000 19970.000
v 5400.000 1.000 20030.000
v 5800.000 1.000 20030.000
v 5800.000 1.000 19970.000
v 5400.000 1.000 19970.000
v 6100.000 1.000 20030.000
v 6500.000 1.000 20030.000
v 6500.000 1.000 19970.000
v 6100.000 1.000 19970.000
v 6100.000 1.000 20030.000
v 6500.000 1.000 20030.000
v 6500.000 1.000 19970.000
v 6100.000 1.000 19970.000
v 6800.000 1.000 20030.000
v 7200.000 1.000 20030.000
v 7200.000 1.000 19970.000
v 6800.000 1.000 19970.000
v 6800.000 1.000 20030.000
v 7200.000 1.000 20030.000
v 7200.000 1.000 19970.000
v 6800.000 1.000 19970.000
v 7500.000 1.000 20030.000
v 7900.000 1.000 20030.000
v 7900.000 1.000 19970.000
v 7500.000 1.000 19970.000
v 7500.000 1.000 20030.000
v 7900.000 1.000 20030.000
v 7900.000 1.000 19970.000
v 7500.000 1.000 19970.000
v 8200.000 1.000 20030.000
v 8600.000 1.000 20030.000
v 8600.000 1.000 19970.000
v 8200.000 1.000 19970.000
v 8200.000 1.000 20030.000
v 8600.000 1.000 20030.000
v 8600.000 1.000 19970.000
v 8200.000 1.000 19970.000
v 8900.000 1.000 20030.000
v 9300.000 1.000 20030.000
v 9300.000 1.000 19970.000
v 8900.000 1.000 19970.000
v 8900.000 1.000 20030.000
v 9300.000 1.000 20030.000
v 9300.000 1.000 19970.000
v 8900.000 1.000 19970.000
v 9600.000 1.000 20030.000
v 10000.000 1.000 20030.000
v 10000.000 1.000 19970.000
v 9600.000 1.000 19970.000
v 9600.000 1.000 20030.000
v 10000.000 1.000 20030.000
v 10000.000 1.000 19970.000
v 9600.000 1.000 19970.000
v -800.000 1.000 3500.000
v -4000.000 1.000 6850.000
v -4000.000 1.000 10000.000
v 4000.000 1.000 10000.000
v 4000.000 1.000 6850.000
v 800.000 1.000 3500.000
v -4000.000 1.000 10000.000
v 4000.000 1.000 10000.000
v 4000.000 1.000 16000.000
v -4000.000 1.000 16000.000
v -4000.000 1.000 10000.000
v 4000.000 1.000 10000.000
v 4000.000 1.000 16000.000
v -4000.000 1.000 16000.000
v 4000.000 1.000 3500.000
v 9500.000 1.000 3500.000
v 9500.000 1.000 10500.000
v 4000.000 1.000 10500.000
v 4000.000 1.000 3500.000
v 9500.000 1.000 3500.000
v 9500.000 1.000 10500.000
v 4000.000 1.000 10500.000
v -9500.000 1.000 3500.000
v -4000.000 1.000 3500.000
v -4000.000 1.000 10500.000
v -9500.000 1.000 10500.000
v -9500.000 1.000 3500.000
v -4000.000 1.000 3500.000
v -4000.000 1.000 10500.000
v -9500.000 1.000 10500.000
v 1250.000 1.150 0.000
v 5965.000 1.150 0.000
v 5965.000 1.150 4500.000
v 1250.000 1.150 4500.000
v 1250.000 1.150 0.000
v 5965.000 1.150 0.000
v 5965.000 1.150 4500.000
v 1250.000 1.150 4500.000
v -5965.000 1.150 0.000
v -1250.000 1.150 0.000
v -1250.000 1.150 4500.000
v -5965.000 1.150 4500.000
v -5965.000 1.150 0.000
v -1250.000 1.150 0.000
v -1250.000 1.150 4500.000
v -5965.000 1.150 4500.000
v -800.000 1.000 36500.000
v -4000.000 1.000 33150.000
v -4000.000 1.000 30000.000
v 4000.000 1.000 30000.000
v 4000.000 1.000 33150.000
v 800.000 1.000 36500.000
v -4000.000 1.000 24000.000
v 4000.000 1.000 24000.000
v 4000.000 1.000 30000.000
v -4000.000 1.000 30000.000
v -4000.000 1.000 24000.000
v 4000.000 1.000 24000.000
v 4000.000 1.000 30000.000
v -4000.000 1.000 30000.000
v 4000.000 1.000 29500.000
v 9500.000 1.000 29500.000
v 9500.000 1.000 36500.000
v 4000.000 1.000 36500.000
v 4000.000 1.000 29500.000
v 9500.000 1.000 29500.000
v 9500.000 1.000 36500.000
v 4000.000 1.000 36500.000
v -9500.000 1.000 29500.000
v -4000.000 1.000 29500.000
v -4000.000 1.000 36500.000
v -9500.000 1.000 36500.000
v -9500.000 1.000 29500.000
v -4000.000 1.000 29500.000
v -4000.000 1.000 36500.000
v -9500.000 1.000 36500.000
v 1250.000 1.150 35500.000
v 5965.000 1.150 35500.000
v 5965.000 1.150 40000.000
v 1250.000 1.150 40000.000
v 1250.000 1.150 35500.000
v 5965.000 1.150 35500.000
v 5965.000 1.150 40000.000
v 1250.000 1.150 40000.000
v -5965.000 1.150 35500.000
v -1250.000 1.150 35500.000
v -1250.000 1.150 40000.000
v -5965.000 1.150 40000.000
v -5965.000 1.150 35500.000
v -1250.000 1.150 35500.000
v -1250.000 1.150 40000.000
v -5965.000 1.150 40000.000
usemtl ZentralLine
f 1 2 3
f 1 3 4
f 5 7 6
f 5 8 7
f 9 10 11
f 9 11 12
f 13 15 14
f 13 16 15
f 17 18 19
f 17 19 20
f 21 23 22
f 21 24 23
f 25 26 27
f 25 27 28
f 29 31 30
f 29 32 31
f 33 34 35
f 33 35 36
f 37 39 38
f 37 40 39
f 41 42 43
f 41 43 44
f 45 47 46
f 45 48 47
f 49 50 51
f 49 51 52
f 53 55 54
f 53 56 55
f 57 58 59
f 57 59 60
f 61 63 62
f 61 64 63
f 65 66 67
f 65 67 68
f 69 71 70
f 69 72 71
f 73 74 75
f 73 75 76
f 77 79 78
f 77 80 79
f 81 82 83
f 81 83 84
f 85 87 86
f 85 88 87
f 89 90 91
f 89 91 92
f 93 95 94
f 93 96 95
f 97 98 99
f 97 99 100
f 101 103 102
f 101 104 103
f 105 106 107
f 105 107 108
f 109 111 110
f 109 112 111
f 113 114 115
f 113 115 116
f 117 119 118
f 117 120 119
f 121 122 123
f 121 123 124
f 125 127 126
f 125 128 127
f 129 130 131
f 129 131 132
f 133 135 134
f 133 136 135
f 137 138 139
f 137 139 140
f 141 143 142
f 141 144 143
f 145 146 147
f 145 147 148
f 149 151 150
f 149 152 151
f 153 154 155
f 153 155 156
f 157 159 158
f 157 160 159
f 161 162 163
f 161 163 164
f 165 167 166
f 165 168 167
f 169 170 171
f 169 171 172
f 173 175 174
f 173 176 175
f 177 178 179
f 177 179 180
f 181 183 182
f 181 184 183
f 185 186 187
f 185 187 188
f 189 191 190
f 189 192 191
f 193 194 195
f 193 195 196
f 197 199 198
f 197 200 199
f 201 202 203
f 201 203 204
f 205 207 206
f 205 208 207
f 209 210 211
f 209 211 212
f 213 215 214
f 213 216 215
f 217 218 219
f 217 219 220
f 221 223 222
f 221 224 223
f 225 226 227
f 225 227 228
f 229 231 230
f 229 232 231
usemtl SlotNear
f 233 234 235
f 233 235 234
f 233 235 236
f 233 236 235
f 233 236 237
f 233 237 236
f 233 237 238
f 233 238 237
usemtl SlotHigh
f 239 240 241
f 239 241 242
f 243 245 244
f 243 246 245
usemtl Pocket
f 247 248 249
f 247 249 250
f 251 253 252
f 251 254 253
f 255 256 257
f 255 257 258
f 259 261 260
f 259 262 261
usemtl Playmaker
f 263 264 265
f 263 265 266
f 267 269 268
f 267 270 269
f 271 272 273
f 271 273 274
f 275 277 276
f 275 278 277
usemtl SlotNear
f 279 280 281
f 279 281 280
f 279 281 282
f 279 282 281
f 279 282 283
f 279 283 282
f 279 283 284
f 279 284 283
usemtl SlotHigh
f 285 286 287
f 285 287 288
f 289 291 290
f 289 292 291
usemtl Pocket
f 293 294 295
f 293 295 296
f 297 299 298
f 297 300 299
f 301 302 303
f 301 303 304
f 305 307 306
f 305 308 307
usemtl Playmaker
f 309 310 311
f 309 311 312
f 313 315 314
f 313 316 315
f 317 318 319
f 317 319 320
f 321 323 322
f 321 324 323
